<svg width="25" height="25" viewBox="0 0 25 25" fill="none" xmlns="http://www.w3.org/2000/svg">
<path d="M8.57637 8.20082L2.19637 9.12582L2.08337 9.14882C1.91231 9.19424 1.75637 9.28423 1.63147 9.40963C1.50656 9.53502 1.41718 9.69131 1.37244 9.86255C1.3277 10.0338 1.3292 10.2138 1.3768 10.3843C1.4244 10.5548 1.51639 10.7095 1.64337 10.8328L6.26537 15.3318L5.17537 21.6868L5.16237 21.7968C5.1519 21.9737 5.18864 22.1503 5.26882 22.3083C5.34901 22.4664 5.46976 22.6003 5.61871 22.6963C5.76766 22.7924 5.93946 22.8471 6.11652 22.8549C6.29358 22.8627 6.46954 22.8234 6.62637 22.7408L12.3324 19.7408L18.0254 22.7408L18.1254 22.7868C18.2904 22.8518 18.4698 22.8718 18.6451 22.8446C18.8204 22.8174 18.9854 22.7441 19.123 22.6321C19.2606 22.5201 19.3659 22.3736 19.4282 22.2075C19.4905 22.0413 19.5075 21.8617 19.4774 21.6868L18.3864 15.3318L23.0104 10.8318L23.0884 10.7468C23.1998 10.6096 23.2729 10.4453 23.3001 10.2706C23.3273 10.096 23.3078 9.9172 23.2435 9.75255C23.1791 9.58791 23.0723 9.44326 22.9339 9.33334C22.7954 9.22342 22.6303 9.15216 22.4554 9.12682L16.0754 8.20082L13.2234 2.42082C13.1409 2.25336 13.0131 2.11234 12.8546 2.01373C12.696 1.91512 12.5131 1.86285 12.3264 1.86285C12.1397 1.86285 11.9567 1.91512 11.7982 2.01373C11.6397 2.11234 11.5119 2.25336 11.4294 2.42082L8.57637 8.20082Z" fill="#DB9D2B"/>
</svg>
