<svg width="44" height="45" viewBox="0 0 44 45" fill="none" xmlns="http://www.w3.org/2000/svg">
<path d="M22.0001 29.6943L29.3334 22.3609M29.3334 22.3609L22.0001 15.0276M29.3334 22.3609H14.6667" stroke="#385FCB" stroke-width="2" stroke-linecap="round" stroke-linejoin="round"/>
<path d="M5.5 9.52751C5.5 8.55505 5.88631 7.62241 6.57394 6.93478C7.26158 6.24715 8.19421 5.86084 9.16667 5.86084H34.8333C35.8058 5.86084 36.7384 6.24715 37.4261 6.93478C38.1137 7.62241 38.5 8.55505 38.5 9.52751V35.1942C38.5 36.1666 38.1137 37.0993 37.4261 37.7869C36.7384 38.4745 35.8058 38.8608 34.8333 38.8608H9.16667C8.19421 38.8608 7.26158 38.4745 6.57394 37.7869C5.88631 37.0993 5.5 36.1666 5.5 35.1942V9.52751Z" stroke="#385FCB" stroke-width="2" stroke-linecap="round" stroke-linejoin="round"/>
</svg>
