<svg width="130" height="130" viewBox="0 0 130 130" fill="none" xmlns="http://www.w3.org/2000/svg">
<g clip-path="url(#clip0_189_2599)">
<path fill-rule="evenodd" clip-rule="evenodd" d="M115.876 57.4489L119.874 43.1398L106.808 45.9022L106.704 45.9167C105.804 46.042 104.366 45.9554 102.975 44.8938C101.634 43.8706 100.721 42.2333 100.183 40.0612L100.181 40.0506L99.9974 39.2989L91.4297 49.2981L91.4014 49.3293L89.1791 47.314L101.526 32.9038L103.095 39.3401C103.976 42.8976 105.681 43.0302 106.29 42.9454L124.095 39.1811L118.81 58.0979C118.586 59.4604 118.685 61.4751 120.9 62.456L126.466 64.9319C126.466 64.9319 125.474 65.7375 123.856 67.0542C118.131 71.7124 104.567 82.7667 99.353 87.1729C98.0448 88.2704 94.8967 91.4833 95.9808 94.9189L98.368 102.447L70.4155 98.1317C69.369 98.0421 67.4287 98.156 66.5522 100.053C66.237 100.736 66.0594 101.649 66.1104 102.866L67.4134 132.551H62.5245L63.8275 102.866C63.8785 101.648 63.7016 100.734 63.3874 100.052C62.5134 98.1532 60.5765 98.0421 59.5223 98.1317L31.5699 102.447L33.957 94.9189C35.0411 91.4833 31.8878 88.2704 30.5848 87.1729C25.3674 82.7668 11.8028 71.713 6.0771 67.0546C4.45847 65.7377 3.46631 64.9319 3.46631 64.9319L9.03802 62.456C11.2532 61.4804 11.3574 59.4604 11.1281 58.0979L5.84823 39.1811L23.6527 42.9454C24.2782 43.0249 25.9721 42.8976 26.8529 39.3401L28.4218 32.9038L40.7692 47.314L38.5462 49.3286L38.5182 49.2977L29.9508 39.2989L29.765 40.0612C29.2281 42.2296 28.3193 43.8678 26.9763 44.8921C25.5779 45.9586 24.1433 46.0319 23.2743 45.9214L23.1524 45.9059L10.0677 43.1395L14.0602 57.4439L14.0865 57.6C14.2452 58.5433 14.336 59.9462 13.8365 61.398C13.2956 62.9703 12.1363 64.368 10.252 65.1994C10.2504 65.2001 10.2488 65.2008 10.2471 65.2015L9.15129 65.6885C11.1169 67.2885 13.6765 69.374 16.4136 71.6095C22.3513 76.4589 29.1516 82.0359 32.5204 84.8809C33.3167 85.552 34.6968 86.8761 35.7437 88.6342C36.7871 90.3865 37.7194 92.965 36.8179 95.8216L35.8911 98.7447L59.1658 95.1512L59.268 95.1425C60.2119 95.0622 62.1864 95.0376 63.9652 96.2404C64.3364 96.4915 64.672 96.7761 64.9715 97.0921C65.2711 96.7767 65.6063 96.4927 65.9769 96.2421C67.754 95.0408 69.7252 95.0616 70.6717 95.1427L70.7729 95.1514L94.0467 98.7447L93.1199 95.8216C92.2189 92.9664 93.1484 90.3885 94.1916 88.6351C95.2371 86.878 96.6164 85.5536 97.4196 84.879C100.787 82.0328 107.584 76.4574 113.52 71.6096C116.257 69.3735 118.817 67.2875 120.783 65.6873L119.685 65.1991C119.684 65.1986 119.683 65.1981 119.682 65.1976C117.8 64.3632 116.643 62.9663 116.103 61.3947C115.605 59.9447 115.696 58.5454 115.85 57.611L115.876 57.4489ZM55.9155 14.4323C53.3251 19.416 51.3706 19.135 50.8077 18.9123L40.8995 13.9074L46.2523 42.6697C48.7593 56.1309 40.7692 47.314 40.7692 47.314C38.5462 49.3286 38.5468 49.3293 38.5475 49.33L38.549 49.3316L38.5525 49.3355L38.5618 49.3456L38.5891 49.3753C38.6112 49.3992 38.6409 49.4311 38.6777 49.4701C38.7512 49.5479 38.8536 49.6545 38.9803 49.7819C39.2317 50.0347 39.5884 50.3792 40.0119 50.7468C40.7597 51.396 42.0813 52.4465 43.5634 52.9056C44.342 53.1467 45.5176 53.3349 46.7497 52.8336C48.0727 52.2953 48.8582 51.2143 49.2651 50.1199C49.9751 48.2104 49.8316 45.5032 49.2016 42.1204L44.9581 19.3185L49.5771 21.6517L49.7041 21.702C50.7942 22.1332 52.4029 22.2328 54.1345 21.2033C55.7022 20.2712 57.1626 18.5379 58.5774 15.8159L64.9697 3.50759L71.365 15.8147C72.7797 18.5393 74.2405 20.2742 75.81 21.2062C77.5454 22.2366 79.154 22.1312 80.2389 21.702L80.3654 21.6519L84.9936 19.3166L80.7416 42.1197C80.1115 45.5026 79.9681 48.2111 80.6791 50.121C81.0868 51.2159 81.873 52.2962 83.1958 52.8339C84.4276 53.3346 85.6029 53.1467 86.3816 52.9057C87.8642 52.447 89.1864 51.3967 89.9348 50.7475C90.3585 50.3799 90.7154 50.0354 90.967 49.7826C91.0938 49.6552 91.1963 49.5486 91.2698 49.4708C91.2829 49.457 91.2951 49.444 91.3064 49.432C91.3268 49.4102 91.3442 49.3915 91.3585 49.3761L91.3858 49.3463L91.3951 49.3362L91.3986 49.3323L91.4001 49.3307C91.4008 49.33 91.4014 49.3293 89.1791 47.314C89.1791 47.314 81.1837 56.1309 83.6907 42.6697L89.054 13.9074L79.1354 18.9123C78.5725 19.135 76.6179 19.4213 74.0275 14.4323L64.9689 -3L55.9155 14.4323Z" fill="#DB9D2B"/>
<path fill-rule="evenodd" clip-rule="evenodd" d="M55.195 48.504C57.9025 45.7965 61.5747 44.2754 65.4038 44.2754C69.2329 44.2754 72.9051 45.7965 75.6127 48.504C78.3202 51.2116 79.8413 54.8838 79.8413 58.7129C79.8413 62.0067 78.2235 65.8952 75.8737 70.0525C73.4941 74.2627 70.2165 78.9933 66.6244 84.0222L65.4038 85.7311L64.1832 84.0222C60.5911 78.9933 57.3136 74.2627 54.9339 70.0525C52.5841 65.8952 50.9663 62.0067 50.9663 58.7129C50.9663 54.8838 52.4874 51.2116 55.195 48.504ZM65.4038 47.2754C62.3704 47.2754 59.4612 48.4804 57.3163 50.6254C55.1713 52.7703 53.9663 55.6795 53.9663 58.7129C53.9663 61.1691 55.2235 64.4681 57.5456 68.5764C59.5749 72.1666 62.3087 76.194 65.4038 80.5631C68.4989 76.194 71.2327 72.1666 73.262 68.5764C75.5841 64.4681 76.8413 61.1691 76.8413 58.7129C76.8413 55.6795 75.6363 52.7703 73.4913 50.6254C71.3464 48.4804 68.4372 47.2754 65.4038 47.2754Z" fill="#DB9D2B"/>
<path fill-rule="evenodd" clip-rule="evenodd" d="M65.4038 54.4629C64.2766 54.4629 63.1956 54.9107 62.3986 55.7077C61.6016 56.5047 61.1538 57.5857 61.1538 58.7129C61.1538 59.8401 61.6016 60.9211 62.3986 61.7181C63.1956 62.5151 64.2766 62.9629 65.4038 62.9629C66.531 62.9629 67.612 62.5151 68.409 61.7181C69.206 60.9211 69.6538 59.8401 69.6538 58.7129C69.6538 57.5857 69.206 56.5047 68.409 55.7077C67.612 54.9107 66.531 54.4629 65.4038 54.4629ZM60.2773 53.5864C61.6369 52.2267 63.481 51.4629 65.4038 51.4629C67.3266 51.4629 69.1707 52.2267 70.5303 53.5864C71.89 54.946 72.6538 56.7901 72.6538 58.7129C72.6538 60.6357 71.89 62.4798 70.5303 63.8394C69.1707 65.1991 67.3266 65.9629 65.4038 65.9629C63.481 65.9629 61.6369 65.1991 60.2773 63.8394C58.9176 62.4798 58.1538 60.6357 58.1538 58.7129C58.1538 56.7901 58.9176 54.946 60.2773 53.5864Z" fill="#DB9D2B"/>
<path fill-rule="evenodd" clip-rule="evenodd" d="M31.2662 61.0688C32.6554 59.1278 34.7588 57.8181 37.1137 57.4279C39.4685 57.0377 41.8819 57.599 43.8229 58.9882C45.764 60.3774 47.0736 62.4808 47.4638 64.8356C47.819 66.9791 47.0563 69.0504 46.0138 71.1756C45.541 72.1395 44.9747 73.1811 44.3686 74.296C44.2949 74.4316 44.2206 74.5682 44.1458 74.7059C43.4498 75.9877 42.6954 77.3908 41.9205 78.9705L40.9957 80.8559L39.5121 79.3695C38.2692 78.1242 37.1025 77.0395 36.0302 76.0506C35.915 75.9444 35.8007 75.8391 35.6872 75.7345C34.7539 74.8747 33.8819 74.0715 33.1234 73.3116C31.4512 71.6362 30.0612 69.9216 29.706 67.7781C29.3158 65.4233 29.877 63.0099 31.2662 61.0688ZM37.6041 60.3876C36.0342 60.6477 34.6319 61.5208 33.7058 62.8148C32.7797 64.1089 32.4055 65.7178 32.6656 67.2877C32.8553 68.4327 33.6272 69.5697 35.2467 71.1923C35.9576 71.9045 36.7801 72.6622 37.7232 73.5312C37.8351 73.6343 37.9487 73.7389 38.064 73.8452C38.7185 74.4488 39.42 75.099 40.1589 75.8059C40.6302 74.8984 41.0846 74.0568 41.5095 73.2743C41.5843 73.1365 41.658 73.0008 41.7307 72.8672C42.3432 71.7405 42.8773 70.7579 43.3204 69.8544C44.33 67.7963 44.6939 66.471 44.5042 65.326C44.2441 63.7562 43.371 62.3539 42.0769 61.4278C40.7829 60.5016 39.174 60.1275 37.6041 60.3876Z" fill="#DB9D2B"/>
<path fill-rule="evenodd" clip-rule="evenodd" d="M86.9833 60.0531C88.9058 58.6384 91.3116 58.0454 93.6714 58.4045C96.0312 58.7636 98.1516 60.0454 99.5663 61.968C100.981 63.8905 101.574 66.2963 101.215 68.6561C100.888 70.8041 99.5208 72.5368 97.8708 74.2341C97.1225 75.004 96.2611 75.8187 95.3392 76.6907C95.2271 76.7967 95.1142 76.9036 95.0004 77.0113C93.9412 78.0142 92.789 79.1143 91.5626 80.3758L90.0988 81.8816L89.1491 80.0086C88.3535 78.4393 87.5806 77.0463 86.8677 75.7737C86.7912 75.637 86.7151 75.5014 86.6396 75.3669C86.0188 74.2601 85.4388 73.226 84.9533 72.2684C83.8829 70.1572 83.093 68.0961 83.4198 65.9481C83.7789 63.5883 85.0607 61.4678 86.9833 60.0531ZM93.22 61.3704C91.6469 61.131 90.043 61.5263 88.7613 62.4695C87.4796 63.4126 86.6251 64.8262 86.3857 66.3994C86.2111 67.5468 86.5924 68.8671 87.6291 70.9118C88.0841 71.8094 88.6311 72.7848 89.2584 73.9033C89.3328 74.036 89.4084 74.1707 89.485 74.3075C89.9202 75.0843 90.3856 75.9199 90.8689 76.821C91.5983 76.1044 92.2912 75.4451 92.9377 74.8329C93.0516 74.7251 93.1638 74.619 93.2742 74.5145C94.2059 73.6331 95.0183 72.8646 95.7197 72.143C97.3177 70.4993 98.0745 69.3521 98.2491 68.2047C98.4885 66.6316 98.0931 65.0277 97.15 63.746C96.2069 62.4643 94.7932 61.6098 93.22 61.3704Z" fill="#DB9D2B"/>
</g>
<defs>
<clipPath id="clip0_189_2599">
<rect width="130" height="130" fill="white"/>
</clipPath>
</defs>
</svg>
