<svg width="32" height="33" viewBox="0 0 32 33" fill="none" xmlns="http://www.w3.org/2000/svg">
<path d="M12 15.5276C12 16.5885 12.4214 17.6059 13.1716 18.356C13.9217 19.1062 14.9391 19.5276 16 19.5276C17.0609 19.5276 18.0783 19.1062 18.8284 18.356C19.5786 17.6059 20 16.5885 20 15.5276C20 14.4667 19.5786 13.4493 18.8284 12.6992C18.0783 11.949 17.0609 11.5276 16 11.5276C14.9391 11.5276 13.9217 11.949 13.1716 12.6992C12.4214 13.4493 12 14.4667 12 15.5276Z" stroke="#385FCB" stroke-width="3" stroke-linecap="round" stroke-linejoin="round"/>
<path d="M23.5423 23.0703L17.885 28.7276C17.385 29.2271 16.7071 29.5077 16.0003 29.5077C15.2936 29.5077 14.6157 29.2271 14.1157 28.7276L8.45701 23.0703C6.96531 21.5785 5.94946 19.6779 5.53793 17.6088C5.1264 15.5396 5.33767 13.395 6.14502 11.4459C6.95237 9.49687 8.31954 7.83099 10.0737 6.65895C11.8278 5.4869 13.89 4.86133 15.9997 4.86133C18.1093 4.86133 20.1716 5.4869 21.9257 6.65895C23.6798 7.83099 25.047 9.49687 25.8543 11.4459C26.6617 13.395 26.873 15.5396 26.4614 17.6088C26.0499 19.6779 25.0341 21.5785 23.5423 23.0703Z" stroke="#385FCB" stroke-width="3" stroke-linecap="round" stroke-linejoin="round"/>
</svg>
