<svg width="44" height="44" viewBox="0 0 44 44" fill="none" xmlns="http://www.w3.org/2000/svg">
<path fill-rule="evenodd" clip-rule="evenodd" d="M9.16667 8.83331C8.59203 8.83331 8.04093 9.06159 7.6346 9.46791C7.23775 9.86476 7.01075 10.3997 7.00037 10.9598C7.424 17.7266 10.3031 24.1068 15.0982 28.9018C19.8932 33.6968 26.2734 36.576 33.0402 36.9996C33.6003 36.9892 34.1352 36.7622 34.5321 36.3654C34.9384 35.959 35.1667 35.4079 35.1667 34.8333V28.5155L28.129 25.7005L26.0362 29.1884C25.6346 29.8578 24.7867 30.1072 24.0865 29.7619C19.8093 27.6525 16.3475 24.1907 14.238 19.9135C13.8927 19.2133 14.1422 18.3654 14.8116 17.9637L18.2995 15.871L15.4845 8.83331H9.16667ZM5.51328 7.34659C6.48222 6.37766 7.79638 5.83331 9.16667 5.83331H16.5C17.1134 5.83331 17.6649 6.20674 17.8927 6.77623L21.5594 15.9429C21.8328 16.6265 21.5697 17.4074 20.9384 17.7862L17.5834 19.7992C19.1913 22.5309 21.4691 24.8086 24.2008 26.4166L26.2138 23.0616C26.5925 22.4303 27.3735 22.1672 28.0571 22.4406L37.2238 26.1073C37.7932 26.3351 38.1667 26.8866 38.1667 27.5V34.8333C38.1667 36.2036 37.6223 37.5178 36.6534 38.4867C35.6844 39.4556 34.3703 40 33 40C32.9697 40 32.9393 39.9991 32.909 39.9972C25.392 39.5404 18.302 36.3483 12.9769 31.0231C7.6517 25.698 4.45958 18.608 4.00276 11.091C4.00092 11.0607 4 11.0303 4 11C4 9.62969 4.54434 8.31553 5.51328 7.34659Z" fill="#DB9D2B"/>
</svg>
