<svg width="44" height="44" viewBox="0 0 44 44" fill="none" xmlns="http://www.w3.org/2000/svg">
<path fill-rule="evenodd" clip-rule="evenodd" d="M18.3333 7C18.2449 7 18.1601 7.03512 18.0976 7.09763C18.0351 7.16014 18 7.24493 18 7.33333V17.712L24.894 24.606C25.1753 24.8873 25.3333 25.2688 25.3333 25.6667V37H37V7.33333C37 7.24493 36.9649 7.16014 36.9024 7.09763C36.8399 7.03512 36.7551 7 36.6667 7H18.3333ZM22.3333 37V26.288L15.4398 19.3944C15.4395 19.3941 15.4392 19.3939 15.4389 19.3936L14.6667 18.6213L7 26.288V37H13.1667V31.1667C13.1667 30.3382 13.8382 29.6667 14.6667 29.6667C15.4951 29.6667 16.1667 30.3382 16.1667 31.1667V37H22.3333ZM15 15.0373C14.5142 14.9271 13.9842 15.0611 13.606 15.4393L4.43934 24.606C4.15804 24.8873 4 25.2688 4 25.6667V38.5C4 39.3284 4.67157 40 5.5 40H38.5C39.3284 40 40 39.3284 40 38.5V7.33333C40 6.44928 39.6488 5.60143 39.0237 4.97631C38.3986 4.35119 37.5507 4 36.6667 4H18.3333C17.4493 4 16.6014 4.35119 15.9763 4.97631C15.3512 5.60143 15 6.44928 15 7.33333V15.0373ZM23.8333 11.3333C24.6618 11.3333 25.3333 12.0049 25.3333 12.8333V12.8517C25.3333 13.6801 24.6618 14.3517 23.8333 14.3517C23.0049 14.3517 22.3333 13.6801 22.3333 12.8517V12.8333C22.3333 12.0049 23.0049 11.3333 23.8333 11.3333ZM31.1667 11.3333C31.9951 11.3333 32.6667 12.0049 32.6667 12.8333V12.8517C32.6667 13.6801 31.9951 14.3517 31.1667 14.3517C30.3382 14.3517 29.6667 13.6801 29.6667 12.8517V12.8333C29.6667 12.0049 30.3382 11.3333 31.1667 11.3333ZM31.1667 18.6667C31.9951 18.6667 32.6667 19.3382 32.6667 20.1667V20.185C32.6667 21.0134 31.9951 21.685 31.1667 21.685C30.3382 21.685 29.6667 21.0134 29.6667 20.185V20.1667C29.6667 19.3382 30.3382 18.6667 31.1667 18.6667ZM31.1667 26C31.9951 26 32.6667 26.6716 32.6667 27.5V27.5183C32.6667 28.3468 31.9951 29.0183 31.1667 29.0183C30.3382 29.0183 29.6667 28.3468 29.6667 27.5183V27.5C29.6667 26.6716 30.3382 26 31.1667 26Z" fill="#DB9D2B"/>
</svg>
