<svg width="44" height="45" viewBox="0 0 44 45" fill="none" xmlns="http://www.w3.org/2000/svg">
<path d="M5.5 13.6943C5.5 12.7218 5.88631 11.7892 6.57394 11.1015C7.26158 10.4139 8.19421 10.0276 9.16667 10.0276H34.8333C35.8058 10.0276 36.7384 10.4139 37.4261 11.1015C38.1137 11.7892 38.5 12.7218 38.5 13.6943V32.0276C38.5 33 38.1137 33.9327 37.4261 34.6203C36.7384 35.3079 35.8058 35.6943 34.8333 35.6943H9.16667C8.19421 35.6943 7.26158 35.3079 6.57394 34.6203C5.88631 33.9327 5.5 33 5.5 32.0276V13.6943Z" stroke="#DB9D2B" stroke-width="3" stroke-linecap="round" stroke-linejoin="round"/>
<path d="M5.5 13.6943L22 24.6943L38.5 13.6943" stroke="#DB9D2B" stroke-width="3" stroke-linecap="round" stroke-linejoin="round"/>
</svg>
