<svg width="130" height="130" viewBox="0 0 130 130" fill="none" xmlns="http://www.w3.org/2000/svg">
<path d="M88.5 78.75V82.5833H82.6667V78.75H88.5Z" fill="#DB9D2B"/>
<path d="M88.5 63.0833V66.9167H82.6667V63.0833H88.5Z" fill="#DB9D2B"/>
<path fill-rule="evenodd" clip-rule="evenodd" d="M63 31.75V47.4167H102.167V98.25H27.8333V31.75H63ZM96.3333 51.25H63V63.0833H70.8333V66.9167H63V78.75H70.8333V82.5833H63V94.4167H96.3333V51.25ZM57.1667 35.5833H47.3333V47.4167H57.1667V35.5833ZM57.1667 51.25H47.3333V63.0833H57.1667V51.25ZM57.1667 66.9167H47.3333V78.75H57.1667V66.9167ZM57.1667 82.5833H47.3333V94.4167H57.1667V82.5833ZM41.5 35.5833H31.6667V47.4167H41.5V35.5833ZM41.5 51.25H31.6667V63.0833H41.5V51.25ZM41.5 66.9167H31.6667V78.75H41.5V66.9167ZM41.5 82.5833H31.6667V94.4167H41.5V82.5833Z" fill="#DB9D2B"/>
</svg>
