<svg width="44" height="44" viewBox="0 0 44 44" fill="none" xmlns="http://www.w3.org/2000/svg">
<path fill-rule="evenodd" clip-rule="evenodd" d="M21.2646 4.19264C21.7212 3.93579 22.2788 3.93579 22.7354 4.19264L37.4021 12.4426C37.8744 12.7083 38.1667 13.2081 38.1667 13.75V30.25C38.1667 30.7919 37.8744 31.2917 37.4021 31.5574L22.7354 39.8074C22.2788 40.0642 21.7212 40.0642 21.2646 39.8074L6.59794 31.5574C6.12562 31.2917 5.83333 30.7919 5.83333 30.25V13.75C5.83333 13.2081 6.12562 12.7083 6.59794 12.4426L21.2646 4.19264ZM8.83333 16.3148L20.5 22.8773V35.9352L8.83333 29.3727V16.3148ZM23.5 35.9352L35.1667 29.3727V16.3148L23.5 22.8773V35.9352ZM22 20.279L33.6071 13.75L22 7.22102L10.3929 13.75L22 20.279Z" fill="#DB9D2B"/>
</svg>
