<svg width="44" height="44" viewBox="0 0 44 44" fill="none" xmlns="http://www.w3.org/2000/svg">
<path fill-rule="evenodd" clip-rule="evenodd" d="M39.5607 4.43938C39.9719 4.85062 40.1084 5.46251 39.9108 6.00951L27.9942 39.0095C27.98 39.0486 27.9643 39.0871 27.947 39.1249C27.7469 39.5616 27.4256 39.9316 27.0214 40.191C26.6172 40.4504 26.147 40.5883 25.6667 40.5883C25.1864 40.5883 24.7162 40.4504 24.3119 40.191C23.9165 39.9372 23.6004 39.5776 23.3995 39.1532L17.2153 26.7847L4.84686 20.6005C4.42251 20.3996 4.06285 20.0836 3.80905 19.6881C3.54964 19.2839 3.41174 18.8137 3.41174 18.3334C3.41174 17.8531 3.54964 17.3829 3.80905 16.9786C4.06846 16.5744 4.43847 16.2532 4.87511 16.0531C4.91292 16.0357 4.95143 16.02 4.99054 16.0059L37.9905 4.08921C38.5375 3.89168 39.1494 4.02815 39.5607 4.43938ZM7.17055 18.4083L19.0042 24.3251C19.2945 24.4702 19.5298 24.7056 19.675 24.9959L25.5918 36.8295L36.0038 7.99626L7.17055 18.4083Z" fill="#DB9D2B"/>
</svg>
