<svg width="44" height="44" viewBox="0 0 44 44" fill="none" xmlns="http://www.w3.org/2000/svg">
<path fill-rule="evenodd" clip-rule="evenodd" d="M9.16667 10.6667C8.59203 10.6667 8.04093 10.895 7.6346 11.3013C7.22827 11.7076 7 12.2587 7 12.8334V34.8334C7 35.408 7.22827 35.9591 7.6346 36.3654C8.04093 36.7717 8.59203 37 9.16667 37H21.6242C22.4526 37 23.1242 37.6716 23.1242 38.5C23.1242 39.3284 22.4526 40 21.6242 40H9.16667C7.79638 40 6.48222 39.4557 5.51328 38.4867C4.54434 37.5178 4 36.2036 4 34.8334V12.8334C4 11.4631 4.54434 10.1489 5.51328 9.17997C6.48222 8.21103 7.79638 7.66669 9.16667 7.66669H31.1667C32.537 7.66669 33.8511 8.21103 34.82 9.17997C35.789 10.1489 36.3333 11.4631 36.3333 12.8334V20.1667C36.3333 20.9951 35.6618 21.6667 34.8333 21.6667C34.0049 21.6667 33.3333 20.9951 33.3333 20.1667V12.8334C33.3333 12.2587 33.1051 11.7076 32.6987 11.3013C32.2924 10.895 31.7413 10.6667 31.1667 10.6667H9.16667Z" fill="#DB9D2B"/>
<path fill-rule="evenodd" clip-rule="evenodd" d="M12.8333 4C13.6618 4 14.3333 4.67157 14.3333 5.5V12.8333C14.3333 13.6618 13.6618 14.3333 12.8333 14.3333C12.0049 14.3333 11.3333 13.6618 11.3333 12.8333V5.5C11.3333 4.67157 12.0049 4 12.8333 4ZM27.5 4C28.3284 4 29 4.67157 29 5.5V12.8333C29 13.6618 28.3284 14.3333 27.5 14.3333C26.6716 14.3333 26 13.6618 26 12.8333V5.5C26 4.67157 26.6716 4 27.5 4ZM4 20.1667C4 19.3382 4.67157 18.6667 5.5 18.6667H34.8333C35.6618 18.6667 36.3333 19.3382 36.3333 20.1667C36.3333 20.9951 35.6618 21.6667 34.8333 21.6667H5.5C4.67157 21.6667 4 20.9951 4 20.1667ZM26.7539 26.7539C28.4105 25.0973 30.6573 24.1667 33 24.1667C35.3427 24.1667 37.5895 25.0973 39.2461 26.7539C40.9027 28.4105 41.8333 30.6573 41.8333 33C41.8333 35.3427 40.9027 37.5895 39.2461 39.2461C37.5895 40.9027 35.3427 41.8333 33 41.8333C30.6573 41.8333 28.4105 40.9027 26.7539 39.2461C25.0973 37.5895 24.1667 35.3427 24.1667 33C24.1667 30.6573 25.0973 28.4105 26.7539 26.7539ZM33 27.1667C31.4529 27.1667 29.9692 27.7812 28.8752 28.8752C27.7812 29.9692 27.1667 31.4529 27.1667 33C27.1667 34.5471 27.7812 36.0308 28.8752 37.1248C29.9692 38.2188 31.4529 38.8333 33 38.8333C34.5471 38.8333 36.0308 38.2188 37.1248 37.1248C38.2188 36.0308 38.8333 34.5471 38.8333 33C38.8333 31.4529 38.2188 29.9692 37.1248 28.8752C36.0308 27.7812 34.5471 27.1667 33 27.1667Z" fill="#DB9D2B"/>
<path fill-rule="evenodd" clip-rule="evenodd" d="M33 28.7427C33.8284 28.7427 34.5 29.4142 34.5 30.2427V32.3787L35.894 33.7727C36.4798 34.3585 36.4798 35.3082 35.894 35.894C35.3082 36.4798 34.3585 36.4798 33.7727 35.894L31.9393 34.0607C31.658 33.7794 31.5 33.3978 31.5 33V30.2427C31.5 29.4142 32.1716 28.7427 33 28.7427Z" fill="#DB9D2B"/>
</svg>
