<svg width="45" height="45" viewBox="0 0 45 45" fill="none" xmlns="http://www.w3.org/2000/svg">
<path d="M22.2248 39.3609H9.76725C8.79479 39.3609 7.86216 38.9746 7.17453 38.287C6.48689 37.5993 6.10059 36.6667 6.10059 35.6943V13.6943C6.10059 12.7218 6.48689 11.7892 7.17453 11.1015C7.86216 10.4139 8.79479 10.0276 9.76725 10.0276H31.7673C32.7397 10.0276 33.6723 10.4139 34.36 11.1015C35.0476 11.7892 35.4339 12.7218 35.4339 13.6943V21.0276" stroke="#DB9D2B" stroke-width="3" stroke-linecap="round" stroke-linejoin="round"/>
<path d="M28.1006 6.36084V13.6942M13.4339 6.36084V13.6942M6.10059 21.0275H35.4339M26.2673 33.8608C26.2673 35.8058 27.0399 37.671 28.4151 39.0463C29.7904 40.4216 31.6557 41.1942 33.6006 41.1942C35.5455 41.1942 37.4108 40.4216 38.786 39.0463C40.1613 37.671 40.9339 35.8058 40.9339 33.8608C40.9339 31.9159 40.1613 30.0507 38.786 28.6754C37.4108 27.3001 35.5455 26.5275 33.6006 26.5275C31.6557 26.5275 29.7904 27.3001 28.4151 28.6754C27.0399 30.0507 26.2673 31.9159 26.2673 33.8608Z" stroke="#DB9D2B" stroke-width="3" stroke-linecap="round" stroke-linejoin="round"/>
<path d="M33.6006 31.1035V33.8608L35.4339 35.6942" stroke="#DB9D2B" stroke-width="3" stroke-linecap="round" stroke-linejoin="round"/>
</svg>
