<svg width="32" height="33" viewBox="0 0 32 33" fill="none" xmlns="http://www.w3.org/2000/svg">
<path d="M12 15.5275C12 16.5883 12.4214 17.6057 13.1716 18.3559C13.9217 19.106 14.9391 19.5275 16 19.5275C17.0609 19.5275 18.0783 19.106 18.8284 18.3559C19.5786 17.6057 20 16.5883 20 15.5275C20 14.4666 19.5786 13.4492 18.8284 12.699C18.0783 11.9489 17.0609 11.5275 16 11.5275C14.9391 11.5275 13.9217 11.9489 13.1716 12.699C12.4214 13.4492 12 14.4666 12 15.5275Z" stroke="#385FCB" stroke-width="3" stroke-linecap="round" stroke-linejoin="round"/>
<path d="M23.5427 23.0702L17.8853 28.7275C17.3853 29.227 16.7074 29.5076 16.0007 29.5076C15.2939 29.5076 14.616 29.227 14.116 28.7275L8.45732 23.0702C6.96561 21.5784 5.94977 19.6777 5.53823 17.6086C5.1267 15.5395 5.33797 13.3948 6.14532 11.4458C6.95267 9.49674 8.31985 7.83087 10.074 6.65883C11.8281 5.48678 13.8903 4.86121 16 4.86121C18.1096 4.86121 20.1719 5.48678 21.926 6.65883C23.6801 7.83087 25.0473 9.49674 25.8546 11.4458C26.662 13.3948 26.8733 15.5395 26.4617 17.6086C26.0502 19.6777 25.0344 21.5784 23.5427 23.0702Z" stroke="#385FCB" stroke-width="3" stroke-linecap="round" stroke-linejoin="round"/>
</svg>
