<svg width="130" height="130" viewBox="0 0 130 130" fill="none" xmlns="http://www.w3.org/2000/svg">
<g clip-path="url(#clip0_189_2598)">
<path d="M59.0122 26.2482L64.6423 22.8915L70.2724 26.2924L68.7978 19.9323L73.7577 15.6922L67.2339 15.118L64.6423 9.11117L62.0507 15.0738L55.527 15.648L60.4868 19.9323L59.0122 26.2482ZM64.6423 24.9709L58.1543 28.8435C57.9637 28.9366 57.7867 28.9743 57.6235 28.9566C57.4614 28.9377 57.3036 28.8824 57.1498 28.7905C56.9949 28.6963 56.8782 28.5632 56.7995 28.3912C56.7209 28.2193 56.7137 28.0314 56.7781 27.8277L58.5046 20.5665L52.7941 15.6727C52.6333 15.5432 52.5272 15.3883 52.476 15.2081C52.4248 15.0279 52.4361 14.8553 52.51 14.6904C52.5838 14.5255 52.6821 14.3901 52.8049 14.2841C52.9288 14.1816 53.0956 14.1121 53.3053 14.0756L60.8407 13.4255L63.779 6.54945C63.8601 6.35511 63.9768 6.21495 64.1293 6.12897C64.2819 6.04299 64.4529 6 64.6423 6C64.8318 6 65.0033 6.04299 65.1571 6.12897C65.3108 6.21495 65.4269 6.35511 65.5056 6.54945L68.4439 13.4255L75.9775 14.0756C76.1884 14.111 76.3558 14.181 76.4798 14.2859C76.6037 14.3895 76.7026 14.5244 76.7764 14.6904C76.8491 14.8553 76.8599 15.0279 76.8086 15.2081C76.7574 15.3883 76.6513 15.5432 76.4905 15.6727L70.78 20.5665L72.5065 27.8277C72.5733 28.0291 72.5667 28.2163 72.4869 28.3895C72.407 28.5626 72.2897 28.6957 72.1348 28.7888C71.9822 28.883 71.8244 28.9389 71.6611 28.9566C71.4991 28.9743 71.3227 28.9366 71.1321 28.8435L64.6423 24.9709Z" fill="#DB9D2B"/>
<path d="M34.1749 33.9322L38.8114 31.2048L43.4479 33.968L42.2336 28.8004L46.3182 25.3553L40.9457 24.8888L38.8114 20.0083L36.6771 24.8529L31.3047 25.3195L35.3892 28.8004L34.1749 33.9322ZM38.8114 32.8943L33.4684 36.0408C33.3114 36.1164 33.1656 36.1471 33.0312 36.1327C32.8978 36.1174 32.7677 36.0724 32.6411 35.9978C32.5136 35.9212 32.4174 35.8131 32.3527 35.6734C32.2879 35.5336 32.282 35.381 32.335 35.2155L33.7569 29.3158L29.0541 25.3396C28.9216 25.2343 28.8343 25.1084 28.7921 24.962C28.7499 24.8156 28.7592 24.6754 28.8201 24.5414C28.8809 24.4075 28.9619 24.2974 29.0629 24.2113C29.165 24.128 29.3024 24.0716 29.4751 24.0419L35.6807 23.5137L38.1005 17.9269C38.1672 17.769 38.2634 17.6551 38.389 17.5853C38.5146 17.5154 38.6554 17.4805 38.8114 17.4805C38.9674 17.4805 39.1087 17.5154 39.2353 17.5853C39.3619 17.6551 39.4576 17.769 39.5223 17.9269L41.9422 23.5137L48.1463 24.0419C48.32 24.0706 48.4578 24.1276 48.5599 24.2127C48.6619 24.2969 48.7434 24.4065 48.8042 24.5414C48.8641 24.6754 48.8729 24.8156 48.8307 24.962C48.7885 25.1084 48.7012 25.2343 48.5687 25.3396L43.866 29.3158L45.2878 35.2155C45.3428 35.3791 45.3374 35.5312 45.2716 35.6719C45.2059 35.8126 45.1092 35.9207 44.9817 35.9963C44.8561 36.0729 44.7261 36.1183 44.5916 36.1327C44.4582 36.1471 44.3129 36.1164 44.1559 36.0408L38.8114 32.8943Z" fill="#DB9D2B"/>
<path fill-rule="evenodd" clip-rule="evenodd" d="M38.8114 17.7305C38.6942 17.7305 38.5958 17.7563 38.5105 17.8037C38.4426 17.8415 38.3801 17.9074 38.3308 18.0242L38.3299 18.0263L35.8507 23.7501L29.5074 24.2901C29.3708 24.3148 29.281 24.3567 29.2229 24.4034C29.1536 24.463 29.0945 24.5417 29.0477 24.6448C29.0124 24.7225 29.006 24.8014 29.0323 24.8928C29.0585 24.9838 29.1131 25.0672 29.2096 25.1438L29.2156 25.1486L34.036 29.2244L32.5759 35.2829L32.5731 35.2917C32.5366 35.4058 32.5445 35.4928 32.5795 35.5682C32.6238 35.6639 32.6863 35.7331 32.769 35.7829C32.8677 35.841 32.9638 35.8732 33.0587 35.8842C33.1333 35.892 33.2288 35.8772 33.351 35.8198L38.8114 32.6042L44.2733 35.8198C44.3963 35.8776 44.4915 35.892 44.5649 35.8841C44.6595 35.874 44.7546 35.8419 44.8516 35.7829L44.8542 35.7812C44.9364 35.7325 44.9996 35.6635 45.0451 35.5661C45.0806 35.4903 45.0878 35.4052 45.0508 35.295L45.0473 35.2847L43.5868 29.2244L48.4131 25.1437C48.5096 25.0671 48.5643 24.9838 48.5905 24.8928C48.617 24.8008 48.6108 24.7214 48.576 24.6435C48.5291 24.5397 48.4698 24.4625 48.4008 24.4056L48.3997 24.4047C48.3425 24.3569 48.253 24.3142 48.1148 24.2901L41.7721 23.7501L39.291 18.0218C39.2438 17.9067 39.1826 17.8417 39.1145 17.8041C39.0278 17.7563 38.9286 17.7305 38.8114 17.7305ZM38.2675 17.3668C38.4334 17.2745 38.6166 17.2305 38.8114 17.2305C39.0062 17.2305 39.1896 17.2745 39.3561 17.3664C39.5405 17.4681 39.6703 17.63 39.7527 17.8297L42.1122 23.2772L48.1773 23.7936L48.187 23.7953C48.3906 23.8289 48.574 23.8991 48.7195 24.0203C48.8542 24.1316 48.9575 24.2733 49.0321 24.4387C49.117 24.6287 49.1288 24.8305 49.0709 25.0313C49.0131 25.2318 48.8942 25.3993 48.7274 25.5328L44.1451 29.4071L45.5285 35.1469C45.5976 35.3604 45.5925 35.5757 45.4981 35.7778C45.4124 35.9612 45.2827 36.1081 45.1105 36.2106C44.9566 36.3042 44.7919 36.3627 44.6182 36.3813C44.6181 36.3813 44.6182 36.3813 44.6182 36.3813C44.4265 36.4019 44.2341 36.356 44.0475 36.2661L44.0381 36.2616L38.8114 33.1844L38.9383 33.1097L38.8114 32.8943L38.6846 33.1098L38.8114 33.1844L33.5862 36.2616L33.5768 36.2661C33.3898 36.3561 33.197 36.4018 33.0047 36.3813L33.0027 36.3811C32.8313 36.3614 32.668 36.3039 32.5142 36.2131L32.5125 36.2121C32.3404 36.1089 32.2109 35.9619 32.1258 35.7785C32.0326 35.5774 32.0276 35.3625 32.094 35.1485L32.0919 35.1569L32.335 35.2155L32.0969 35.1392C32.0959 35.1423 32.0949 35.1454 32.094 35.1485L33.4777 29.4071L33.5954 29.5067L33.7569 29.3158L33.5138 29.2572L33.4777 29.4071L28.8954 25.5328C28.8965 25.5336 28.8975 25.5344 28.8986 25.5353L29.0541 25.3396L28.8927 25.5305L28.8954 25.5328C28.7286 25.3993 28.6097 25.2318 28.5519 25.0313C28.4938 24.8299 28.506 24.6283 28.5924 24.4381C28.6668 24.2743 28.7689 24.1334 28.9008 24.021L28.9048 24.0175C29.0495 23.8995 29.2311 23.8302 29.4327 23.7955L29.4432 23.7937L35.5106 23.2772L35.4512 23.4143L35.6806 23.5137L35.6594 23.2646L35.5106 23.2772L37.8702 17.8296L38.1005 17.9269L37.8711 17.8275L37.8706 17.8286C37.9547 17.63 38.0845 17.4685 38.2675 17.3668ZM38.8123 19.3863L41.1152 24.6526L46.9395 25.1584L42.5121 28.8926L43.8261 34.4844L38.8106 31.4953L33.7967 34.4447L35.1107 28.8916L30.6876 25.1221L36.508 24.6167L38.8123 19.3863ZM38.8106 20.6303L36.8462 25.0892L31.9217 25.5168L35.6677 28.7093L34.5531 33.4197L38.8122 30.9143L43.0698 33.4516L41.9551 28.7082L45.6969 25.5523L40.7761 25.125L38.8106 20.6303Z" fill="#DB9D2B"/>
<path d="M84.4017 33.9322L89.0382 31.2048L93.6747 33.968L92.4604 28.8004L96.545 25.3553L91.1725 24.8888L89.0382 20.0083L86.9039 24.8529L81.5315 25.3195L85.616 28.8004L84.4017 33.9322ZM89.0382 32.8943L83.6952 36.0408C83.5382 36.1164 83.3924 36.1471 83.258 36.1327C83.1246 36.1174 82.9945 36.0724 82.868 35.9978C82.7404 35.9212 82.6442 35.8131 82.5795 35.6734C82.5147 35.5336 82.5088 35.381 82.5618 35.2155L83.9837 29.3158L79.2809 25.3396C79.1484 25.2343 79.0611 25.1084 79.0189 24.962C78.9767 24.8156 78.986 24.6754 79.0469 24.5414C79.1077 24.4075 79.1887 24.2974 79.2897 24.2113C79.3918 24.128 79.5292 24.0716 79.7019 24.0419L85.9075 23.5137L88.3273 17.9269C88.394 17.769 88.4902 17.6551 88.6158 17.5853C88.7414 17.5154 88.8822 17.4805 89.0382 17.4805C89.1942 17.4805 89.3355 17.5154 89.4621 17.5853C89.5887 17.6551 89.6844 17.769 89.7492 17.9269L92.169 23.5137L98.3731 24.0419C98.5468 24.0706 98.6846 24.1276 98.7867 24.2127C98.8888 24.2969 98.9702 24.4065 99.031 24.5414C99.0909 24.6754 99.0997 24.8156 99.0575 24.962C99.0153 25.1084 98.928 25.2343 98.7955 25.3396L94.0928 29.3158L95.5146 35.2155C95.5696 35.3791 95.5642 35.5312 95.4984 35.6719C95.4327 35.8126 95.336 35.9207 95.2085 35.9963C95.0829 36.0729 94.9529 36.1183 94.8184 36.1327C94.685 36.1471 94.5397 36.1164 94.3827 36.0408L89.0382 32.8943Z" fill="#DB9D2B"/>
<path fill-rule="evenodd" clip-rule="evenodd" d="M89.0382 17.7305C88.921 17.7305 88.8226 17.7563 88.7373 17.8037C88.6694 17.8415 88.6069 17.9074 88.5576 18.0242L88.5567 18.0263L86.0775 23.7501L79.7342 24.2901C79.5976 24.3148 79.5078 24.3567 79.4497 24.4034C79.3804 24.463 79.3213 24.5417 79.2745 24.6448C79.2392 24.7225 79.2328 24.8014 79.2591 24.8928C79.2853 24.9838 79.3399 25.0672 79.4364 25.1438L79.4424 25.1486L84.2628 29.2244L82.8027 35.2829L82.7999 35.2917C82.7634 35.4058 82.7713 35.4928 82.8063 35.5682C82.8506 35.6639 82.9131 35.7331 82.9958 35.7829C83.0945 35.841 83.1906 35.8732 83.2855 35.8842C83.3601 35.892 83.4556 35.8772 83.5778 35.8198L89.0382 32.6042L94.5001 35.8198C94.6231 35.8776 94.7183 35.892 94.7917 35.8841C94.8863 35.874 94.9815 35.8419 95.0784 35.7829L95.081 35.7812C95.1632 35.7325 95.2264 35.6635 95.272 35.5661C95.3074 35.4903 95.3146 35.4052 95.2776 35.295L95.2742 35.2847L93.8136 29.2244L98.6399 25.1437C98.7364 25.0671 98.7911 24.9838 98.8173 24.8928C98.8438 24.8008 98.8376 24.7214 98.8028 24.6435C98.7559 24.5397 98.6966 24.4625 98.6276 24.4056L98.6265 24.4047C98.5693 24.3569 98.4798 24.3142 98.3416 24.2901L91.9989 23.7501L89.5178 18.0218C89.4706 17.9067 89.4094 17.8417 89.3413 17.8041C89.2546 17.7563 89.1554 17.7305 89.0382 17.7305ZM88.4943 17.3668C88.6602 17.2745 88.8434 17.2305 89.0382 17.2305C89.233 17.2305 89.4164 17.2745 89.5829 17.3664C89.7673 17.4681 89.8971 17.63 89.9795 17.8297L92.339 23.2772L98.4041 23.7936L98.4139 23.7953C98.6174 23.8289 98.8008 23.8991 98.9463 24.0203C99.081 24.1316 99.1844 24.2733 99.2589 24.4387C99.3438 24.6287 99.3556 24.8305 99.2978 25.0313C99.2399 25.2318 99.121 25.3993 98.9542 25.5328L94.3719 29.4071L95.7553 35.1469C95.8244 35.3604 95.8194 35.5757 95.7249 35.7778C95.6392 35.9612 95.5095 36.1081 95.3373 36.2106C95.1834 36.3042 95.0188 36.3627 94.845 36.3813C94.8449 36.3813 94.845 36.3813 94.845 36.3813C94.6533 36.4019 94.4609 36.356 94.2743 36.2661L94.2649 36.2616L89.0382 33.1844L89.1651 33.1097L89.0382 32.8943L88.9114 33.1098L89.0382 33.1844L83.813 36.2616L83.8036 36.2661C83.6166 36.3561 83.4238 36.4018 83.2315 36.3813L83.2295 36.3811C83.0581 36.3614 82.8948 36.3039 82.741 36.2131L82.7393 36.2121C82.5672 36.1089 82.4377 35.9619 82.3526 35.7785C82.2594 35.5774 82.2544 35.3625 82.3208 35.1485L82.3188 35.1569L82.5618 35.2155L82.3237 35.1392C82.3227 35.1423 82.3217 35.1454 82.3208 35.1485L83.7045 29.4071L83.8222 29.5067L83.9837 29.3158L83.7406 29.2572L83.7045 29.4071L79.1222 25.5328C79.1233 25.5336 79.1243 25.5344 79.1254 25.5353L79.2809 25.3396L79.1195 25.5305L79.1222 25.5328C78.9554 25.3993 78.8365 25.2318 78.7787 25.0313C78.7206 24.8299 78.7328 24.6283 78.8192 24.4381C78.8936 24.2743 78.9957 24.1334 79.1276 24.021L79.1317 24.0175C79.2763 23.8995 79.4579 23.8302 79.6595 23.7955L79.67 23.7937L85.7374 23.2772L85.678 23.4143L85.9075 23.5137L85.8862 23.2646L85.7374 23.2772L88.097 17.8296L88.3273 17.9269L88.0979 17.8275L88.0974 17.8286C88.1815 17.63 88.3113 17.4685 88.4943 17.3668ZM89.0391 19.3863L91.342 24.6526L97.1663 25.1584L92.7389 28.8926L94.0529 34.4844L89.0374 31.4953L84.0235 34.4447L85.3375 28.8916L80.9144 25.1221L86.7348 24.6167L89.0391 19.3863ZM89.0374 20.6303L87.073 25.0892L82.1485 25.5168L85.8945 28.7093L84.7799 33.4197L89.039 30.9143L93.2966 33.4516L92.1819 28.7082L95.9237 25.5523L91.0029 25.125L89.0374 20.6303Z" fill="#DB9D2B"/>
<path fill-rule="evenodd" clip-rule="evenodd" d="M64.7381 44.8113C56.8748 44.8113 50.5004 51.1857 50.5004 59.049C50.5004 66.9123 56.8748 73.2868 64.7381 73.2868C72.6014 73.2868 78.9758 66.9123 78.9758 59.049C78.9758 51.1857 72.6014 44.8113 64.7381 44.8113ZM47.5004 59.049C47.5004 49.5289 55.218 41.8113 64.7381 41.8113C74.2582 41.8113 81.9758 49.5289 81.9758 59.049C81.9758 68.5692 74.2582 76.2868 64.7381 76.2868C55.218 76.2868 47.5004 68.5692 47.5004 59.049Z" fill="#DB9D2B"/>
<path fill-rule="evenodd" clip-rule="evenodd" d="M41.7466 90.4688C47.7061 87.1165 55.838 85.0901 64.7381 85.0901C73.6381 85.0901 81.77 87.1165 87.7296 90.4688C93.6421 93.7946 97.7136 98.6238 97.7136 104.295C97.7136 104.965 97.7109 105.625 97.7056 106.274C97.6989 107.103 97.0219 107.769 96.1935 107.762C95.3651 107.755 94.699 107.078 94.7057 106.25C94.711 105.609 94.7136 104.957 94.7136 104.295C94.7136 100.189 91.7385 96.1659 86.2588 93.0835C80.8262 90.0276 73.2204 88.0901 64.7381 88.0901C56.2558 88.0901 48.65 90.0276 43.2174 93.0835C37.7377 96.1659 34.7626 100.189 34.7626 104.295C34.7626 109.314 34.8432 112.963 38.1442 115.651C39.8525 117.042 42.5422 118.269 46.8389 119.138C51.1291 120.007 56.9208 120.5 64.7381 120.5C73.4622 120.5 79.6591 119.884 84.0583 118.823C84.8636 118.628 85.674 119.123 85.8684 119.929C86.0628 120.734 85.5675 121.544 84.7622 121.739C80.0335 122.88 73.5694 123.5 64.7381 123.5C56.8177 123.5 50.8061 123.002 46.2437 122.079C41.688 121.156 38.476 119.79 36.2498 117.977C31.7597 114.32 31.7612 109.23 31.7626 104.538C31.7626 104.457 31.7626 104.376 31.7626 104.295C31.7626 98.6238 35.8341 93.7946 41.7466 90.4688Z" fill="#DB9D2B"/>
<path fill-rule="evenodd" clip-rule="evenodd" d="M20.0602 59.1619C15.7634 59.1619 12.2802 62.6451 12.2802 66.9419C12.2802 71.2387 15.7634 74.7219 20.0602 74.7219C24.357 74.7219 27.8402 71.2387 27.8402 66.9419C27.8402 62.6451 24.357 59.1619 20.0602 59.1619ZM9.28021 66.9419C9.28021 60.9882 14.1066 56.1619 20.0602 56.1619C26.0139 56.1619 30.8402 60.9882 30.8402 66.9419C30.8402 72.8955 26.0139 77.7219 20.0602 77.7219C14.1066 77.7219 9.28021 72.8955 9.28021 66.9419Z" fill="#DB9D2B"/>
<path fill-rule="evenodd" clip-rule="evenodd" d="M6.20116 84.9326C9.82343 82.895 14.7265 81.6819 20.0602 81.6819C25.394 81.6819 30.297 82.895 33.9193 84.9326C37.4945 86.9437 40.1203 89.9566 40.1203 93.6219C40.1203 94.0187 40.1187 94.4094 40.1156 94.7941C40.1088 95.6225 39.4318 96.2886 38.6034 96.2818C37.775 96.2751 37.1089 95.5981 37.1157 94.7697C37.1187 94.3934 37.1203 94.0108 37.1203 93.6219C37.1203 91.522 35.5909 89.3149 32.4485 87.5473C29.3532 85.8062 24.9762 84.6819 20.0602 84.6819C15.1442 84.6819 10.7673 85.8062 7.67196 87.5473C4.52958 89.3149 3.00022 91.522 3.00022 93.6219C3.00022 96.6348 3.08083 98.4672 4.76742 99.8407C5.66849 100.575 7.14731 101.269 9.62783 101.771C12.1017 102.272 15.4718 102.562 20.0602 102.562C25.1826 102.562 28.7819 102.2 31.3083 101.59C32.1136 101.396 32.924 101.891 33.1184 102.696C33.3127 103.501 32.8175 104.312 32.0122 104.506C29.1562 105.196 25.2897 105.562 20.0602 105.562C15.3687 105.562 11.7787 105.267 9.03261 104.712C6.29313 104.157 4.29195 103.322 2.87302 102.167C-0.00437903 99.8237 -0.00192385 96.548 0.000108904 93.8357C0.000162667 93.764 0.000216073 93.6927 0.000216073 93.6219C0.000216073 89.9566 2.62598 86.9437 6.20116 84.9326Z" fill="#DB9D2B"/>
<path fill-rule="evenodd" clip-rule="evenodd" d="M109.033 59.1619C104.737 59.1619 101.253 62.6451 101.253 66.9419C101.253 71.2387 104.737 74.7219 109.033 74.7219C113.33 74.7219 116.813 71.2387 116.813 66.9419C116.813 62.6451 113.33 59.1619 109.033 59.1619ZM98.2535 66.9419C98.2535 60.9882 103.08 56.1619 109.033 56.1619C114.987 56.1619 119.813 60.9882 119.813 66.9419C119.813 72.8955 114.987 77.7219 109.033 77.7219C103.08 77.7219 98.2535 72.8955 98.2535 66.9419Z" fill="#DB9D2B"/>
<path fill-rule="evenodd" clip-rule="evenodd" d="M95.1744 84.9326C98.7967 82.895 103.7 81.6819 109.033 81.6819C114.367 81.6819 119.27 82.895 122.893 84.9326C126.468 86.9437 129.093 89.9566 129.093 93.6219C129.093 94.0187 129.092 94.4094 129.089 94.7941C129.082 95.6225 128.405 96.2886 127.577 96.2818C126.748 96.2751 126.082 95.5981 126.089 94.7697C126.092 94.3934 126.093 94.0108 126.093 93.6219C126.093 91.522 124.564 89.3149 121.422 87.5473C118.326 85.8062 113.949 84.6819 109.033 84.6819C104.117 84.6819 99.7405 85.8062 96.6452 87.5473C93.5028 89.3149 91.9734 91.522 91.9734 93.6219C91.9734 94.4503 91.3019 95.1219 90.4734 95.1219C89.645 95.1219 88.9734 94.4503 88.9734 93.6219C88.9734 89.9566 91.5992 86.9437 95.1744 84.9326ZM94.7819 102.266C95.0288 101.476 95.8701 101.035 96.6609 101.282C99.1928 102.073 103.078 102.562 109.033 102.562C114.156 102.562 117.755 102.2 120.282 101.59C121.087 101.396 121.897 101.891 122.092 102.696C122.286 103.501 121.791 104.312 120.985 104.506C118.129 105.196 114.263 105.562 109.033 105.562C102.972 105.562 98.7303 105.071 95.7665 104.145C94.9757 103.898 94.5349 103.057 94.7819 102.266Z" fill="#DB9D2B"/>
</g>
<defs>
<clipPath id="clip0_189_2598">
<rect width="130" height="130" fill="white"/>
</clipPath>
</defs>
</svg>
