<svg width="44" height="44" viewBox="0 0 44 44" fill="none" xmlns="http://www.w3.org/2000/svg">
<path fill-rule="evenodd" clip-rule="evenodd" d="M32.2452 4.51643C32.7884 3.89097 33.7358 3.8243 34.3613 4.36753C36.6957 6.39508 38.5713 8.89691 39.8629 11.7063C40.2089 12.459 39.8793 13.3497 39.1266 13.6957C38.3739 14.0418 37.4832 13.7121 37.1371 12.9594C36.0236 10.5374 34.4067 8.38051 32.3941 6.63252C31.7686 6.08929 31.7019 5.14189 32.2452 4.51643ZM11.7508 4.51598C12.2942 5.14122 12.228 6.08865 11.6027 6.63212C9.59132 8.38046 7.97556 10.5373 6.86305 12.959C6.51722 13.7118 5.62662 14.0417 4.87382 13.6959C4.12103 13.3501 3.79112 12.4595 4.13695 11.7067C5.42738 8.89767 7.30155 6.39587 9.63462 4.36792C10.2599 3.82445 11.2073 3.89073 11.7508 4.51598ZM22 7.00002C21.4254 7.00002 20.8743 7.2283 20.4679 7.63462C20.0616 8.04095 19.8333 8.59205 19.8333 9.16669C19.8333 9.74673 19.4989 10.2748 18.9745 10.5227C17.1152 11.4019 15.5302 12.7705 14.3893 14.4818C13.2548 16.1836 12.602 18.1606 12.5 20.203V25.6667C12.5 25.7269 12.4964 25.7871 12.4891 25.8469C12.3238 27.2125 11.8419 28.5204 11.082 29.6667H32.918C32.1581 28.5204 31.6762 27.2125 31.5109 25.8469C31.5036 25.7871 31.5 25.7269 31.5 25.6667V20.203C31.398 18.1606 30.7452 16.1836 29.6107 14.4818C28.4698 12.7705 26.8848 11.4019 25.0255 10.5227C24.5011 10.2748 24.1667 9.74673 24.1667 9.16669C24.1667 8.59205 23.9384 8.04095 23.5321 7.63462C23.1257 7.2283 22.5746 7.00002 22 7.00002ZM26 32.6667H18V33C18 34.0609 18.4214 35.0783 19.1716 35.8285C19.9217 36.5786 20.9391 37 22 37C23.0609 37 24.0783 36.5786 24.8284 35.8285C25.5786 35.0783 26 34.0609 26 33V32.6667ZM15 32.6667V33C15 34.8565 15.7375 36.637 17.0502 37.9498C18.363 39.2625 20.1435 40 22 40C23.8565 40 25.637 39.2625 26.9497 37.9498C28.2625 36.637 29 34.8565 29 33V32.6667H36.6667C37.3479 32.6667 37.9436 32.2076 38.1172 31.5489C38.2907 30.8901 37.9986 30.1971 37.4058 29.8614C36.6111 29.4114 35.9332 28.7811 35.4266 28.0212C34.9358 27.285 34.6191 26.4471 34.5 25.571V20.1667C34.5 20.1432 34.4994 20.1198 34.4983 20.0964C34.3764 17.4981 33.5497 14.982 32.1068 12.8177C30.8237 10.893 29.0964 9.31117 27.0759 8.20251C26.8838 7.19089 26.3919 6.25182 25.6534 5.5133C24.6844 4.54437 23.3703 4.00002 22 4.00002C20.6297 4.00002 19.3156 4.54437 18.3466 5.5133C17.6081 6.25182 17.1162 7.19089 16.9241 8.20251C14.9036 9.31117 13.1763 10.893 11.8932 12.8177C10.4503 14.982 9.6236 17.4981 9.50165 20.0964C9.50055 20.1198 9.5 20.1432 9.5 20.1667V25.571C9.38094 26.4471 9.06425 27.285 8.57343 28.0212C8.06684 28.7811 7.3889 29.4114 6.5942 29.8614C6.00141 30.1971 5.70927 30.8901 5.88283 31.5489C6.0564 32.2076 6.65209 32.6667 7.33333 32.6667H15Z" fill="#DB9D2B"/>
</svg>
