<svg width="130" height="130" viewBox="0 0 130 130" fill="none" xmlns="http://www.w3.org/2000/svg">
<path fill-rule="evenodd" clip-rule="evenodd" d="M15.5 59.228C16.3284 59.228 17 59.8996 17 60.728V91.149C17 91.9464 17.3094 92.7379 18.1907 93.6876C19.1051 94.673 20.5494 95.7328 22.6454 97.0098C24.7276 98.2784 27.342 99.6966 30.536 101.428L30.5696 101.446C33.7443 103.167 37.4611 105.182 41.7078 107.625C42.1951 107.906 42.4848 108.435 42.4581 108.997L42.0241 118.133L55.7714 118.394L54.9853 101.107L34.8152 90.0148C34.5149 89.8497 34.2803 89.5867 34.1502 89.2696L31.5693 82.9769C31.2549 82.2105 31.6214 81.3343 32.3879 81.0199C33.1543 80.7056 34.0305 81.0721 34.3449 81.8385L36.7249 87.6413L57.1683 98.8839C57.6264 99.1358 57.9202 99.6079 57.944 100.13L58.8409 119.856C58.8598 120.27 58.7064 120.673 58.4171 120.97C58.1279 121.267 57.7286 121.431 57.3141 121.423L40.4242 121.104C40.019 121.096 39.6342 120.925 39.3573 120.629C39.0804 120.333 38.935 119.938 38.9543 119.533L39.418 109.771C35.5331 107.55 32.1078 105.693 29.1318 104.079L29.1062 104.066L29.1036 104.064C25.9338 102.346 23.245 100.888 21.0845 99.5718C18.9372 98.2635 17.199 97.0292 15.9917 95.7283C14.7514 94.3918 14 92.905 14 91.149V60.728C14 59.8996 14.6716 59.228 15.5 59.228Z" fill="#DB9D2B"/>
<path fill-rule="evenodd" clip-rule="evenodd" d="M115.433 59.228C114.604 59.228 113.933 59.8996 113.933 60.728V91.149C113.933 91.9464 113.623 92.7379 112.742 93.6876C111.828 94.673 110.383 95.7328 108.287 97.0098C106.205 98.2784 103.591 99.6966 100.397 101.428L100.363 101.446C97.1885 103.167 93.4717 105.182 89.225 107.625C88.7377 107.906 88.448 108.435 88.4747 108.997L88.9087 118.133L75.1614 118.394L75.9475 101.107L96.1176 90.0148C96.4291 89.8435 96.6697 89.567 96.7964 89.2348L99.3773 82.4652C99.6724 81.6912 99.2842 80.8244 98.5101 80.5293C97.736 80.2342 96.8693 80.6224 96.5741 81.3965L94.1894 87.6515L73.7645 98.8839C73.3064 99.1358 73.0126 99.6079 72.9888 100.13L72.0919 119.856C72.073 120.27 72.2264 120.673 72.5157 120.97C72.8049 121.267 73.2042 121.431 73.6187 121.423L90.5086 121.104C90.9138 121.096 91.2986 120.925 91.5755 120.629C91.8524 120.333 91.9978 119.938 91.9785 119.533L91.5148 109.771C95.3997 107.55 98.825 105.693 101.801 104.079L101.827 104.066L101.829 104.064C104.999 102.346 107.688 100.888 109.848 99.5718C111.996 98.2635 113.734 97.0292 114.941 95.7283C116.181 94.3918 116.933 92.905 116.933 91.149V60.728C116.933 59.8996 116.261 59.228 115.433 59.228Z" fill="#DB9D2B"/>
<path d="M97.9663 79.625H89.8413V18.375H92.9663C93.4636 18.375 93.9405 18.1775 94.2921 17.8258C94.6438 17.4742 94.8413 16.9973 94.8413 16.5C94.8413 16.0027 94.6438 15.5258 94.2921 15.1742C93.9405 14.8225 93.4636 14.625 92.9663 14.625H37.9663C37.469 14.625 36.9921 14.8225 36.6405 15.1742C36.2889 15.5258 36.0913 16.0027 36.0913 16.5C36.0913 16.9973 36.2889 17.4742 36.6405 17.8258C36.9921 18.1775 37.469 18.375 37.9663 18.375H41.0913V79.625H32.9663C32.469 79.625 31.9921 79.8225 31.6405 80.1742C31.2889 80.5258 31.0913 81.0027 31.0913 81.5C31.0913 81.9973 31.2889 82.4742 31.6405 82.8258C31.9921 83.1775 32.469 83.375 32.9663 83.375H97.9663C98.4636 83.375 98.9405 83.1775 99.2921 82.8258C99.6438 82.4742 99.8413 81.9973 99.8413 81.5C99.8413 81.0027 99.6438 80.5258 99.2921 80.1742C98.9405 79.8225 98.4636 79.625 97.9663 79.625ZM44.8413 18.375H86.0913V79.625H74.8413V66.5C74.8413 66.0027 74.6438 65.5258 74.2921 65.1742C73.9405 64.8225 73.4636 64.625 72.9663 64.625H57.9663C57.469 64.625 56.9921 64.8225 56.6405 65.1742C56.2889 65.5258 56.0913 66.0027 56.0913 66.5V79.625H44.8413V18.375ZM71.0913 79.625H59.8413V68.375H71.0913V79.625ZM53.5913 29C53.5913 28.5027 53.7889 28.0258 54.1405 27.6742C54.4921 27.3225 54.969 27.125 55.4663 27.125H60.4663C60.9636 27.125 61.4405 27.3225 61.7921 27.6742C62.1438 28.0258 62.3413 28.5027 62.3413 29C62.3413 29.4973 62.1438 29.9742 61.7921 30.3258C61.4405 30.6775 60.9636 30.875 60.4663 30.875H55.4663C54.969 30.875 54.4921 30.6775 54.1405 30.3258C53.7889 29.9742 53.5913 29.4973 53.5913 29ZM68.5913 29C68.5913 28.5027 68.7888 28.0258 69.1405 27.6742C69.4921 27.3225 69.969 27.125 70.4663 27.125H75.4663C75.9636 27.125 76.4405 27.3225 76.7921 27.6742C77.1438 28.0258 77.3413 28.5027 77.3413 29C77.3413 29.4973 77.1438 29.9742 76.7921 30.3258C76.4405 30.6775 75.9636 30.875 75.4663 30.875H70.4663C69.969 30.875 69.4921 30.6775 69.1405 30.3258C68.7888 29.9742 68.5913 29.4973 68.5913 29ZM53.5913 41.5C53.5913 41.0027 53.7889 40.5258 54.1405 40.1742C54.4921 39.8225 54.969 39.625 55.4663 39.625H60.4663C60.9636 39.625 61.4405 39.8225 61.7921 40.1742C62.1438 40.5258 62.3413 41.0027 62.3413 41.5C62.3413 41.9973 62.1438 42.4742 61.7921 42.8258C61.4405 43.1775 60.9636 43.375 60.4663 43.375H55.4663C54.969 43.375 54.4921 43.1775 54.1405 42.8258C53.7889 42.4742 53.5913 41.9973 53.5913 41.5ZM68.5913 41.5C68.5913 41.0027 68.7888 40.5258 69.1405 40.1742C69.4921 39.8225 69.969 39.625 70.4663 39.625H75.4663C75.9636 39.625 76.4405 39.8225 76.7921 40.1742C77.1438 40.5258 77.3413 41.0027 77.3413 41.5C77.3413 41.9973 77.1438 42.4742 76.7921 42.8258C76.4405 43.1775 75.9636 43.375 75.4663 43.375H70.4663C69.969 43.375 69.4921 43.1775 69.1405 42.8258C68.7888 42.4742 68.5913 41.9973 68.5913 41.5ZM55.4663 55.875C54.969 55.875 54.4921 55.6775 54.1405 55.3258C53.7889 54.9742 53.5913 54.4973 53.5913 54C53.5913 53.5027 53.7889 53.0258 54.1405 52.6742C54.4921 52.3225 54.969 52.125 55.4663 52.125H60.4663C60.9636 52.125 61.4405 52.3225 61.7921 52.6742C62.1438 53.0258 62.3413 53.5027 62.3413 54C62.3413 54.4973 62.1438 54.9742 61.7921 55.3258C61.4405 55.6775 60.9636 55.875 60.4663 55.875H55.4663ZM68.5913 54C68.5913 53.5027 68.7888 53.0258 69.1405 52.6742C69.4921 52.3225 69.969 52.125 70.4663 52.125H75.4663C75.9636 52.125 76.4405 52.3225 76.7921 52.6742C77.1438 53.0258 77.3413 53.5027 77.3413 54C77.3413 54.4973 77.1438 54.9742 76.7921 55.3258C76.4405 55.6775 75.9636 55.875 75.4663 55.875H70.4663C69.969 55.875 69.4921 55.6775 69.1405 55.3258C68.7888 54.9742 68.5913 54.4973 68.5913 54Z" fill="#DB9D2B"/>
</svg>
