<svg width="17" height="17" viewBox="0 0 17 17" fill="none" xmlns="http://www.w3.org/2000/svg">
<path d="M5.52499 1.41669H11.475C13.7417 1.41669 15.5833 3.25835 15.5833 5.52502V11.475C15.5833 12.5646 15.1505 13.6096 14.38 14.3801C13.6096 15.1505 12.5646 15.5834 11.475 15.5834H5.52499C3.25832 15.5834 1.41666 13.7417 1.41666 11.475V5.52502C1.41666 4.43542 1.8495 3.39045 2.61996 2.61999C3.39042 1.84953 4.43539 1.41669 5.52499 1.41669ZM5.38332 2.83335C4.70702 2.83335 4.05842 3.10201 3.5802 3.58023C3.10198 4.05845 2.83332 4.70705 2.83332 5.38335V11.6167C2.83332 13.0263 3.97374 14.1667 5.38332 14.1667H11.6167C12.293 14.1667 12.9416 13.898 13.4198 13.4198C13.898 12.9416 14.1667 12.293 14.1667 11.6167V5.38335C14.1667 3.97377 13.0262 2.83335 11.6167 2.83335H5.38332ZM12.2187 3.89585C12.4536 3.89585 12.6788 3.98914 12.8448 4.15519C13.0109 4.32123 13.1042 4.54644 13.1042 4.78127C13.1042 5.0161 13.0109 5.24131 12.8448 5.40735C12.6788 5.5734 12.4536 5.66669 12.2187 5.66669C11.9839 5.66669 11.7587 5.5734 11.5927 5.40735C11.4266 5.24131 11.3333 5.0161 11.3333 4.78127C11.3333 4.54644 11.4266 4.32123 11.5927 4.15519C11.7587 3.98914 11.9839 3.89585 12.2187 3.89585ZM8.49999 4.95835C9.4393 4.95835 10.3401 5.33149 11.0043 5.99568C11.6685 6.65988 12.0417 7.56071 12.0417 8.50002C12.0417 9.43933 11.6685 10.3402 11.0043 11.0044C10.3401 11.6685 9.4393 12.0417 8.49999 12.0417C7.56068 12.0417 6.65984 11.6685 5.99565 11.0044C5.33146 10.3402 4.95832 9.43933 4.95832 8.50002C4.95832 7.56071 5.33146 6.65988 5.99565 5.99568C6.65984 5.33149 7.56068 4.95835 8.49999 4.95835ZM8.49999 6.37502C7.93641 6.37502 7.3959 6.5989 6.99739 6.99742C6.59887 7.39593 6.37499 7.93644 6.37499 8.50002C6.37499 9.06361 6.59887 9.60411 6.99739 10.0026C7.3959 10.4011 7.93641 10.625 8.49999 10.625C9.06358 10.625 9.60408 10.4011 10.0026 10.0026C10.4011 9.60411 10.625 9.06361 10.625 8.50002C10.625 7.93644 10.4011 7.39593 10.0026 6.99742C9.60408 6.5989 9.06358 6.37502 8.49999 6.37502Z" fill="#385FCB"/>
</svg>
