<svg width="44" height="44" viewBox="0 0 44 44" fill="none" xmlns="http://www.w3.org/2000/svg">
<path fill-rule="evenodd" clip-rule="evenodd" d="M9.16667 10.6667C8.59203 10.6667 8.04093 10.895 7.6346 11.3013C7.22827 11.7076 7 12.2587 7 12.8334V31.1667C7 31.7413 7.22827 32.2924 7.6346 32.6988C8.04093 33.1051 8.59203 33.3334 9.16667 33.3334H34.8333C35.408 33.3334 35.9591 33.1051 36.3654 32.6988C36.7717 32.2924 37 31.7413 37 31.1667V12.8334C37 12.2587 36.7717 11.7076 36.3654 11.3013C35.9591 10.895 35.408 10.6667 34.8333 10.6667H9.16667ZM5.51328 9.17997C6.48222 8.21103 7.79638 7.66669 9.16667 7.66669H34.8333C36.2036 7.66669 37.5178 8.21103 38.4867 9.17997C39.4557 10.1489 40 11.4631 40 12.8334V31.1667C40 32.537 39.4557 33.8511 38.4867 34.8201C37.5178 35.789 36.2036 36.3334 34.8333 36.3334H9.16667C7.79638 36.3334 6.48222 35.789 5.51328 34.8201C4.54434 33.8511 4 32.537 4 31.1667V12.8334C4 11.4631 4.54434 10.1489 5.51328 9.17997Z" fill="#DB9D2B"/>
<path fill-rule="evenodd" clip-rule="evenodd" d="M4.25193 12.0013C4.71146 11.312 5.64276 11.1257 6.33206 11.5853L22 22.0306L37.668 11.5853C38.3573 11.1257 39.2886 11.312 39.7481 12.0013C40.2076 12.6906 40.0214 13.6219 39.3321 14.0814L22.8321 25.0814C22.3282 25.4173 21.6718 25.4173 21.168 25.0814L4.66796 14.0814C3.97866 13.6219 3.7924 12.6906 4.25193 12.0013Z" fill="#DB9D2B"/>
</svg>
