<svg width="44" height="45" viewBox="0 0 44 45" fill="none" xmlns="http://www.w3.org/2000/svg">
<path d="M22 29.6943L14.6666 22.3609M14.6666 22.3609L22 15.0276M14.6666 22.3609H29.3333" stroke="#385FCB" stroke-width="2" stroke-linecap="round" stroke-linejoin="round"/>
<path d="M38.5 9.52751C38.5 8.55505 38.1137 7.62241 37.4261 6.93478C36.7384 6.24715 35.8058 5.86084 34.8333 5.86084H9.16667C8.19421 5.86084 7.26158 6.24715 6.57394 6.93478C5.88631 7.62241 5.5 8.55505 5.5 9.52751V35.1942C5.5 36.1666 5.88631 37.0993 6.57394 37.7869C7.26158 38.4745 8.19421 38.8608 9.16667 38.8608H34.8333C35.8058 38.8608 36.7384 38.4745 37.4261 37.7869C38.1137 37.0993 38.5 36.1666 38.5 35.1942V9.52751Z" stroke="#385FCB" stroke-width="2" stroke-linecap="round" stroke-linejoin="round"/>
</svg>
