<svg width="25" height="25" viewBox="0 0 25 25" fill="none" xmlns="http://www.w3.org/2000/svg">
<g id="tabler:mail">
<g id="Group">
<path id="Vector" d="M3.5 7.86084C3.5 7.33041 3.71071 6.8217 4.08579 6.44663C4.46086 6.07155 4.96957 5.86084 5.5 5.86084H19.5C20.0304 5.86084 20.5391 6.07155 20.9142 6.44663C21.2893 6.8217 21.5 7.33041 21.5 7.86084V17.8608C21.5 18.3913 21.2893 18.9 20.9142 19.2751C20.5391 19.6501 20.0304 19.8608 19.5 19.8608H5.5C4.96957 19.8608 4.46086 19.6501 4.08579 19.2751C3.71071 18.9 3.5 18.3913 3.5 17.8608V7.86084Z" stroke="#385FCB" stroke-width="3" stroke-linecap="round" stroke-linejoin="round"/>
<path id="Vector_2" d="M3.5 7.86084L12.5 13.8608L21.5 7.86084" stroke="#385FCB" stroke-width="3" stroke-linecap="round" stroke-linejoin="round"/>
</g>
</g>
</svg>
