<svg width="17" height="17" viewBox="0 0 17 17" fill="none" xmlns="http://www.w3.org/2000/svg">
<path fill-rule="evenodd" clip-rule="evenodd" d="M9.09176 5.58V6.99417C9.38791 6.54306 9.79611 6.17658 10.2764 5.93059C10.7567 5.6846 11.2926 5.56753 11.8318 5.59083C14.7109 5.59083 15.3334 7.39083 15.3334 9.7325V14.5H12.6668V10.2733C12.6668 9.265 12.4634 7.96833 10.8934 7.96833C9.37093 7.96833 9.11093 9.06583 9.11093 10.1983V14.5H6.4526V5.58H9.09176ZM4.66676 3.33833C4.66643 3.6025 4.58813 3.8607 4.44166 4.08054C4.2952 4.30039 4.08709 4.47211 3.84343 4.57417C3.59987 4.6754 3.3317 4.70188 3.07304 4.65024C2.81438 4.5986 2.57694 4.47117 2.39093 4.28417C2.20457 4.09705 2.07769 3.85901 2.02626 3.59997C1.97482 3.34094 2.00112 3.07248 2.10185 2.82836C2.20259 2.58423 2.37325 2.37534 2.59238 2.22795C2.81152 2.08056 3.06934 2.00125 3.33343 2C3.50895 2 3.68274 2.03465 3.84483 2.10197C4.00693 2.16929 4.15413 2.26795 4.27801 2.39229C4.40189 2.51663 4.5 2.66421 4.56671 2.82655C4.63342 2.9889 4.66742 3.16282 4.66676 3.33833Z" fill="#385FCB"/>
<path d="M4.66667 5.59082H2V14.5H4.66667V5.59082Z" fill="#385FCB"/>
</svg>
