<svg width="130" height="130" viewBox="0 0 130 130" fill="none" xmlns="http://www.w3.org/2000/svg">
<path fill-rule="evenodd" clip-rule="evenodd" d="M36.717 51.4474C37.4099 51.1144 38.2324 51.208 38.8327 51.6883L55.1667 64.7554V53.25C55.1667 52.4812 55.6074 51.7805 56.3003 51.4474C56.9932 51.1144 57.8157 51.208 58.4161 51.6883L77.4516 66.9167H92.4167C93.5212 66.9167 94.4167 67.8121 94.4167 68.9167C94.4167 70.0213 93.5212 70.9167 92.4167 70.9167H76.75C76.2959 70.9167 75.8552 70.7621 75.5006 70.4784L59.1667 57.4113V68.9167C59.1667 69.6855 58.726 70.3863 58.033 70.7193C57.3401 71.0523 56.5176 70.9587 55.9173 70.4784L39.5833 57.4113V98.25H100.25C101.355 98.25 102.25 99.1455 102.25 100.25C102.25 101.355 101.355 102.25 100.25 102.25H29.75C28.6454 102.25 27.75 101.355 27.75 100.25C27.75 99.1455 28.6454 98.25 29.75 98.25H35.5833V53.25C35.5833 52.4812 36.024 51.7805 36.717 51.4474Z" fill="#DB9D2B"/>
<path fill-rule="evenodd" clip-rule="evenodd" d="M77.8091 28.6866C78.525 28.0809 79.4326 27.749 80.3703 27.75C80.3709 27.75 80.3715 27.75 80.3721 27.75L80.369 29.75V27.75H80.3703H84.8528C84.8524 27.75 84.852 27.75 84.8516 27.75L84.8536 29.7491V27.75C85.8019 27.7495 86.7188 28.0895 87.4376 28.7081C88.1567 29.327 88.6296 30.1836 88.7702 31.1218C88.7702 31.122 88.7702 31.1221 88.7703 31.1222C88.7703 31.1223 88.7703 31.1224 88.7703 31.1225L94.3945 68.62C94.4093 68.7182 94.4167 68.8174 94.4167 68.9167V100.25C94.4167 101.355 93.5212 102.25 92.4167 102.25C91.3121 102.25 90.4167 101.355 90.4167 100.25V69.0658L84.8197 31.75H80.4013L74.8061 65.3287C74.6246 66.4183 73.5942 67.1544 72.5046 66.9728C71.4151 66.7913 70.679 65.7608 70.8605 64.6713L76.4612 31.0592C76.6151 30.1336 77.0928 29.2927 77.8091 28.6866ZM80.4071 31.7152C80.407 31.7154 80.407 31.7157 80.407 31.7159ZM51.25 84.5833C51.25 83.4788 52.1454 82.5833 53.25 82.5833H57.1667C58.2712 82.5833 59.1667 83.4788 59.1667 84.5833C59.1667 85.6879 58.2712 86.5833 57.1667 86.5833H53.25C52.1454 86.5833 51.25 85.6879 51.25 84.5833ZM70.8333 84.5833C70.8333 83.4788 71.7288 82.5833 72.8333 82.5833H76.75C77.8546 82.5833 78.75 83.4788 78.75 84.5833C78.75 85.6879 77.8546 86.5833 76.75 86.5833H72.8333C71.7288 86.5833 70.8333 85.6879 70.8333 84.5833Z" fill="#DB9D2B"/>
</svg>
