<svg width="44" height="44" viewBox="0 0 44 44" fill="none" xmlns="http://www.w3.org/2000/svg">
<path fill-rule="evenodd" clip-rule="evenodd" d="M19.7619 8.83337C19.6568 9.25586 19.4385 9.64588 19.1255 9.95888C18.6723 10.4121 18.0576 10.6667 17.4167 10.6667H16.5C15.9254 10.6667 15.3743 10.895 14.9679 11.3013C14.5616 11.7076 14.3333 12.2587 14.3333 12.8334V33C14.3333 33.5747 14.5616 34.1258 14.9679 34.5321C15.3743 34.9384 15.9254 35.1667 16.5 35.1667H27.5C28.0746 35.1667 28.6257 34.9384 29.0321 34.5321C29.4384 34.1258 29.6667 33.5747 29.6667 33V12.8334C29.6667 12.2587 29.4384 11.7076 29.0321 11.3013C28.6257 10.895 28.0746 10.6667 27.5 10.6667H26.5833C25.9424 10.6667 25.3277 10.4121 24.8745 9.95888C24.5615 9.64588 24.3432 9.25586 24.2381 8.83337H19.7619ZM17.5412 6.5412C17.9944 6.08799 18.6091 5.83337 19.25 5.83337H24.75C25.3909 5.83337 26.0056 6.08799 26.4588 6.5412C26.7718 6.8542 26.9901 7.24422 27.0952 7.66671H27.5C28.8703 7.66671 30.1845 8.21105 31.1534 9.17999C32.1223 10.1489 32.6667 11.4631 32.6667 12.8334V33C32.6667 34.3703 32.1223 35.6845 31.1534 36.6534C30.1845 37.6224 28.8703 38.1667 27.5 38.1667H16.5C15.1297 38.1667 13.8156 37.6224 12.8466 36.6534C11.8777 35.6845 11.3333 34.3703 11.3333 33V12.8334C11.3333 11.4631 11.8777 10.1489 12.8466 9.17999C13.8156 8.21105 15.1297 7.66671 16.5 7.66671H16.9048C17.0099 7.24422 17.2282 6.8542 17.5412 6.5412ZM16.8333 20.1667C16.8333 19.3383 17.5049 18.6667 18.3333 18.6667H25.6667C26.4951 18.6667 27.1667 19.3383 27.1667 20.1667C27.1667 20.9951 26.4951 21.6667 25.6667 21.6667H18.3333C17.5049 21.6667 16.8333 20.9951 16.8333 20.1667ZM16.8333 25.6667C16.8333 24.8383 17.5049 24.1667 18.3333 24.1667H25.6667C26.4951 24.1667 27.1667 24.8383 27.1667 25.6667C27.1667 26.4951 26.4951 27.1667 25.6667 27.1667H18.3333C17.5049 27.1667 16.8333 26.4951 16.8333 25.6667ZM16.8333 31.1667C16.8333 30.3383 17.5049 29.6667 18.3333 29.6667H25.6667C26.4951 29.6667 27.1667 30.3383 27.1667 31.1667C27.1667 31.9951 26.4951 32.6667 25.6667 32.6667H18.3333C17.5049 32.6667 16.8333 31.9951 16.8333 31.1667Z" fill="#DB9D2B"/>
</svg>
