<svg width="28" height="29" viewBox="0 0 28 29" fill="none" xmlns="http://www.w3.org/2000/svg">
<path d="M7.72333 13.0188C9.40333 16.3204 12.11 19.0154 15.4117 20.7071L17.9783 18.1404C18.2933 17.8254 18.76 17.7204 19.1683 17.8604C20.475 18.2921 21.8867 18.5254 23.3333 18.5254C23.975 18.5254 24.5 19.0504 24.5 19.6921V23.7638C24.5 24.4054 23.975 24.9304 23.3333 24.9304C12.3783 24.9304 3.5 16.0521 3.5 5.09709C3.5 4.45542 4.025 3.93042 4.66667 3.93042H8.75C9.39167 3.93042 9.91667 4.45542 9.91667 5.09709C9.91667 6.55542 10.15 7.95542 10.5817 9.26209C10.71 9.67042 10.6167 10.1254 10.29 10.4521L7.72333 13.0188Z" fill="#385FCB"/>
</svg>
