<svg width="861" height="367" viewBox="0 0 861 367" fill="none" xmlns="http://www.w3.org/2000/svg">
<path style="mix-blend-mode:multiply" d="M564.851 30.3397V61.2518H368.96V3.91174H228.578V334.805H368.96L715.271 336.866V30.3397H564.851Z" fill="url(#paint0_linear_167_1933)"/>
<path d="M679.665 51.1768H586.967C585.669 51.1768 584.62 50.1274 584.62 48.8298C584.62 47.5323 585.669 46.4828 586.967 46.4828H679.665C680.962 46.4828 682.012 47.5323 682.012 48.8298C682.012 50.1274 680.962 51.1768 679.665 51.1768Z" fill="white"/>
<path d="M679.665 69.5331H586.967C585.669 69.5331 584.62 68.4836 584.62 67.186C584.62 65.8885 585.669 64.839 586.967 64.839H679.665C680.962 64.839 682.012 65.8885 682.012 67.186C682.012 68.4836 680.962 69.5331 679.665 69.5331Z" fill="white"/>
<path d="M679.665 87.8706H586.967C585.669 87.8706 584.62 86.8211 584.62 85.5235C584.62 84.226 585.669 83.1765 586.967 83.1765H679.665C680.962 83.1765 682.012 84.226 682.012 85.5235C682.012 86.8211 680.962 87.8706 679.665 87.8706Z" fill="white"/>
<path d="M679.665 106.227H586.967C585.669 106.227 584.62 105.177 584.62 103.88C584.62 102.582 585.669 101.533 586.967 101.533H679.665C680.962 101.533 682.012 102.582 682.012 103.88C682.012 105.177 680.962 106.227 679.665 106.227Z" fill="white"/>
<path d="M679.665 124.564H586.967C585.669 124.564 584.62 123.515 584.62 122.217C584.62 120.92 585.669 119.87 586.967 119.87H679.665C680.962 119.87 682.012 120.92 682.012 122.217C682.012 123.515 680.962 124.564 679.665 124.564Z" fill="white"/>
<path d="M679.665 142.921H586.967C585.669 142.921 584.62 141.871 584.62 140.574C584.62 139.276 585.669 138.227 586.967 138.227H679.665C680.962 138.227 682.012 139.276 682.012 140.574C682.012 141.871 680.962 142.921 679.665 142.921Z" fill="white"/>
<path d="M256.684 21.1615H244.644V33.2019H256.684V21.1615Z" fill="white"/>
<path d="M281.013 21.1615H268.973V33.2019H281.013V21.1615Z" fill="white"/>
<path d="M305.342 21.1615H293.302V33.2019H305.342V21.1615Z" fill="white"/>
<path d="M329.671 21.1615H317.631V33.2019H329.671V21.1615Z" fill="white"/>
<path d="M256.684 51.1768H244.644V63.2172H256.684V51.1768Z" fill="white"/>
<path d="M281.013 51.1768H268.973V63.2172H281.013V51.1768Z" fill="white"/>
<path d="M305.342 51.1768H293.302V63.2172H305.342V51.1768Z" fill="white"/>
<path d="M329.671 51.1768H317.631V63.2172H329.671V51.1768Z" fill="white"/>
<path d="M256.684 81.192H244.644V93.2325H256.684V81.192Z" fill="white"/>
<path d="M281.013 81.192H268.973V93.2325H281.013V81.192Z" fill="white"/>
<path d="M305.342 81.192H293.302V93.2325H305.342V81.192Z" fill="white"/>
<path d="M329.671 81.192H317.631V93.2325H329.671V81.192Z" fill="white"/>
<path d="M486.389 266.531C476.41 287.864 462.957 287.864 458.53 287.864C447.806 287.864 438.934 281.09 432.14 267.752C423.974 251.724 419.642 227.662 419.642 198.181C419.642 197.799 419.642 197.418 419.642 197.036H362.989C362.989 197.284 362.989 197.551 362.989 197.799V197.914C363.371 239.779 372.053 274.641 388.062 298.741C404.644 323.68 428.343 336.865 456.603 336.865C487.706 336.865 513.084 323.375 529.991 297.863C545.886 273.877 554.072 239.95 554.415 197.036H497.8C497.705 226.746 493.774 250.77 486.389 266.531Z" fill="#D25A58"/>
<path d="M441.604 347.475H387.756L391.4 326.714L395.007 306.106L398.651 285.345L402.277 264.737L404.986 249.281C405.502 246.304 408.097 244.129 411.131 244.129H418.267C421.301 244.129 423.877 246.304 424.411 249.281L427.121 264.737L430.746 285.345L434.391 306.106L437.997 326.714L441.642 347.475H441.604Z" fill="#FFA726"/>
<path d="M458.32 359.61H371.041L387.756 347.494H441.604L458.32 359.61Z" fill="#FB8C00"/>
<path d="M371.041 359.611H458.32V361.442C458.32 364.114 456.144 366.289 453.473 366.289H375.887C373.216 366.289 371.041 364.114 371.041 361.442V359.611Z" fill="#FFA726"/>
<path d="M430.708 285.345H398.651L402.258 264.737H427.102L430.708 285.345Z" fill="#ECEFF1"/>
<path d="M437.96 326.733H391.401L395.007 306.125H434.353L437.96 326.733Z" fill="#ECEFF1"/>
<path style="mix-blend-mode:multiply" d="M458.319 363.98V359.611L441.603 347.494L437.959 326.733L434.352 306.125L430.708 285.364L427.082 264.756L424.373 249.3C423.838 246.323 421.262 244.148 418.229 244.148L428.819 347.494L441.584 359.611V366.289H455.991C457.269 366.289 458.3 365.259 458.3 363.98H458.319Z" fill="url(#paint1_linear_167_1933)"/>
<path style="mix-blend-mode:multiply" d="M371.041 363.98V359.61L387.756 347.494L391.401 326.733L395.007 306.125L398.652 285.364L402.277 264.756L404.987 249.3C405.521 246.323 408.097 244.148 411.131 244.148L400.541 347.494L387.775 359.61V366.289H373.369C372.09 366.289 371.06 365.259 371.06 363.98H371.041Z" fill="url(#paint2_linear_167_1933)"/>
<path d="M556.951 95.6175C540.618 70.4871 516.308 57.1873 486.617 57.1873C456.926 57.1873 432.597 70.4108 415.118 95.4266C398.002 119.927 388.919 155.056 388.805 197.017H445.458C445.573 167.097 450.076 142.673 458.529 126.358C465.455 112.963 474.271 106.189 484.728 106.189C499.249 106.189 523.616 117.847 523.616 195.872C523.616 196.253 523.616 196.635 523.616 197.017H580.231C580.231 196.12 580.269 195.242 580.269 194.345C580.269 152.614 572.427 119.393 556.971 95.5984L556.951 95.6175Z" fill="#D25A58"/>
<path d="M772.917 211.481H749.676V57.1873H695.866L692.431 62.1103L581.682 220.602L579.602 223.578V260.883H694.931V328.469H749.656V260.883H784.404V211.5H772.879L772.917 211.481ZM647.055 211.481L694.95 144.905V211.481H647.055Z" fill="#D25A58"/>
<path d="M138.036 329.023C136.223 329.023 134.677 327.668 134.467 325.836L98.5177 7.02197C98.2887 5.05657 99.7199 3.26292 101.685 3.05302C103.67 2.84312 105.444 4.25515 105.654 6.22055L141.604 325.035C141.833 327 140.402 328.794 138.436 329.004C138.303 329.004 138.169 329.023 138.036 329.023Z" fill="#8C9EA5"/>
<path d="M235.37 329.023C233.557 329.023 232.012 327.668 231.802 325.836L195.852 7.02197C195.623 5.05657 197.054 3.26292 199.02 3.05302C201.004 2.84312 202.779 4.25515 202.989 6.22055L238.938 325.035C239.167 327 237.736 328.794 235.771 329.004C235.637 329.004 235.504 329.023 235.37 329.023Z" fill="#8C9EA5"/>
<path d="M203.161 43.4679H105.826C103.842 43.4679 102.239 41.865 102.239 39.8806C102.239 37.8961 103.842 36.2932 105.826 36.2932H203.161C205.146 36.2932 206.749 37.8961 206.749 39.8806C206.749 41.865 205.146 43.4679 203.161 43.4679Z" fill="#8C9EA5"/>
<path d="M205.203 75.0857H109.891C107.906 75.0857 106.303 73.4828 106.303 71.4983C106.303 69.5139 107.906 67.911 109.891 67.911H205.203C207.187 67.911 208.79 69.5139 208.79 71.4983C208.79 73.4828 207.187 75.0857 205.203 75.0857Z" fill="#8C9EA5"/>
<path d="M207.225 106.723H113.955C111.97 106.723 110.367 105.12 110.367 103.136C110.367 101.151 111.97 99.5483 113.955 99.5483H207.225C209.21 99.5483 210.813 101.151 210.813 103.136C210.813 105.12 209.21 106.723 207.225 106.723Z" fill="#8C9EA5"/>
<path d="M213.866 138.36H118.172C116.187 138.36 114.584 136.757 114.584 134.773C114.584 132.788 116.187 131.186 118.172 131.186H213.866C215.85 131.186 217.453 132.788 217.453 134.773C217.453 136.757 215.85 138.36 213.866 138.36Z" fill="#8C9EA5"/>
<path d="M217.395 169.997H121.129C119.144 169.997 117.542 168.394 117.542 166.41C117.542 164.425 119.144 162.823 121.129 162.823H217.395C219.38 162.823 220.983 164.425 220.983 166.41C220.983 168.394 219.38 169.997 217.395 169.997Z" fill="#8C9EA5"/>
<path d="M221.003 201.635H124.66C122.676 201.635 121.073 200.032 121.073 198.047C121.073 196.063 122.676 194.46 124.66 194.46H221.003C222.987 194.46 224.59 196.063 224.59 198.047C224.59 200.032 222.987 201.635 221.003 201.635Z" fill="#8C9EA5"/>
<path d="M200.127 13.2044H95.5025C91.8579 13.2044 88.9003 10.2468 88.9003 6.60221C88.9003 2.95764 91.8579 0 95.5025 0H200.127C203.771 0 206.729 2.95764 206.729 6.60221C206.729 10.2468 203.771 13.2044 200.127 13.2044Z" fill="#B0BEC5"/>
<path d="M159.119 329.023C158.986 329.023 158.852 329.023 158.719 329.004C156.753 328.775 155.322 327 155.551 325.035L191.501 6.22055C191.73 4.25515 193.504 2.84312 195.47 3.05302C197.435 3.282 198.866 5.05657 198.637 7.02197L162.688 325.836C162.478 327.668 160.932 329.023 159.119 329.023Z" fill="#B0BEC5"/>
<path d="M61.7661 329.023C61.6326 329.023 61.499 329.023 61.3654 329.004C59.4 328.775 57.9689 327 58.1979 325.035L94.1475 6.22055C94.3765 4.25515 96.1511 2.84312 98.1165 3.05302C100.082 3.282 101.513 5.05657 101.284 7.02197L65.3344 325.836C65.1245 327.668 63.5789 329.023 61.7661 329.023Z" fill="#B0BEC5"/>
<path d="M191.311 43.4679H93.9761C91.9917 43.4679 90.3888 41.865 90.3888 39.8806C90.3888 37.8961 91.9917 36.2932 93.9761 36.2932H191.311C193.296 36.2932 194.898 37.8961 194.898 39.8806C194.898 41.865 193.296 43.4679 191.311 43.4679Z" fill="#B0BEC5"/>
<path d="M187.246 75.0857H91.9339C89.9494 75.0857 88.3466 73.4828 88.3466 71.4983C88.3466 69.5139 89.9494 67.911 91.9339 67.911H187.246C189.231 67.911 190.834 69.5139 190.834 71.4983C190.834 73.4828 189.231 75.0857 187.246 75.0857Z" fill="#B0BEC5"/>
<path d="M183.183 106.723H89.912C87.9275 106.723 86.3247 105.12 86.3247 103.136C86.3247 101.151 87.9275 99.5483 89.912 99.5483H183.183C185.167 99.5483 186.77 101.151 186.77 103.136C186.77 105.12 185.167 106.723 183.183 106.723Z" fill="#B0BEC5"/>
<path d="M178.965 138.36H83.2708C81.2863 138.36 79.6835 136.757 79.6835 134.773C79.6835 132.788 81.2863 131.186 83.2708 131.186H178.965C180.949 131.186 182.552 132.788 182.552 134.773C182.552 136.757 180.949 138.36 178.965 138.36Z" fill="#B0BEC5"/>
<path d="M176.008 169.997H79.7414C77.7569 169.997 76.1541 168.394 76.1541 166.41C76.1541 164.425 77.7569 162.823 79.7414 162.823H176.008C177.992 162.823 179.595 164.425 179.595 166.41C179.595 168.394 177.992 169.997 176.008 169.997Z" fill="#B0BEC5"/>
<path d="M172.477 201.635H76.1338C74.1494 201.635 72.5465 200.032 72.5465 198.047C72.5465 196.063 74.1494 194.46 76.1338 194.46H172.477C174.461 194.46 176.064 196.063 176.064 198.047C176.064 200.032 174.461 201.635 172.477 201.635Z" fill="#B0BEC5"/>
<path d="M262.638 237.851L381.783 159.197L391.4 152.843L385.046 143.226L365.067 112.944L361.766 107.925L355.756 107.773L162.479 102.64L158.853 102.544L155.819 104.548L137.329 116.741L127.712 123.095L134.066 132.712L191.254 219.361L144.447 250.254L134.83 256.609L141.184 266.226L158.643 292.673L164.997 302.29L174.615 295.936L221.422 265.043L234.225 284.429L240.579 294.047L250.197 287.692L272.198 273.171L281.815 266.817L275.461 257.2L262.657 237.813L262.638 237.851ZM206.099 152.194L288.035 155.495L232.47 192.17L206.08 152.194H206.099Z" fill="#D25A58"/>
<path d="M94.9308 287.502C78.5016 287.502 65.2018 300.821 65.2018 317.231C65.2018 333.641 78.5207 346.96 94.9308 346.96H346.426V287.483H94.9308V287.502Z" fill="#B0BEC5"/>
<path style="mix-blend-mode:multiply" d="M94.9308 287.502C78.5016 287.502 65.2018 300.821 65.2018 317.231C65.2018 333.641 78.5207 346.96 94.9308 346.96H346.426V287.483H94.9308V287.502Z" fill="url(#paint3_linear_167_1933)"/>
<path d="M357.709 344.695C372.902 338.471 380.172 321.108 373.947 305.915C367.722 290.722 350.359 283.451 335.166 289.676C319.973 295.901 312.703 313.264 318.928 328.457C325.153 343.65 342.516 350.92 357.709 344.695Z" fill="#CFD8DC"/>
<path d="M346.426 338.659C358.261 338.659 367.855 329.066 367.855 317.231C367.855 305.396 358.261 295.802 346.426 295.802C334.592 295.802 324.998 305.396 324.998 317.231C324.998 329.066 334.592 338.659 346.426 338.659Z" fill="#B0BEC5"/>
<path style="mix-blend-mode:multiply" d="M346.426 338.659C358.261 338.659 367.855 329.066 367.855 317.231C367.855 305.396 358.261 295.802 346.426 295.802C334.592 295.802 324.998 305.396 324.998 317.231C324.998 329.066 334.592 338.659 346.426 338.659Z" fill="url(#paint4_linear_167_1933)"/>
<path d="M62.893 234.55C46.4638 234.55 33.1639 247.869 33.1639 264.279C33.1639 280.689 46.4829 294.008 62.893 294.008H314.388V234.531H62.893V234.55Z" fill="#B0BEC5"/>
<path style="mix-blend-mode:multiply" d="M62.893 234.55C46.4638 234.55 33.1639 247.869 33.1639 264.279C33.1639 280.689 46.4829 294.008 62.893 294.008H314.388V234.531H62.893V234.55Z" fill="url(#paint5_linear_167_1933)"/>
<path d="M335.404 285.31C347.014 273.7 347.014 254.877 335.404 243.267C323.794 231.657 304.971 231.657 293.361 243.267C281.751 254.877 281.751 273.701 293.361 285.31C304.971 296.92 323.794 296.92 335.404 285.31Z" fill="#CFD8DC"/>
<path d="M314.388 285.727C326.223 285.727 335.817 276.133 335.817 264.299C335.817 252.464 326.223 242.87 314.388 242.87C302.554 242.87 292.96 252.464 292.96 264.299C292.96 276.133 302.554 285.727 314.388 285.727Z" fill="#B0BEC5"/>
<path style="mix-blend-mode:multiply" d="M314.388 285.727C326.223 285.727 335.817 276.133 335.817 264.299C335.817 252.464 326.223 242.87 314.388 242.87C302.554 242.87 292.96 252.464 292.96 264.299C292.96 276.133 302.554 285.727 314.388 285.727Z" fill="url(#paint6_linear_167_1933)"/>
<path d="M29.729 287.502C13.2998 287.502 0 300.82 0 317.231C0 333.641 13.3189 346.96 29.729 346.96H281.224V287.482H29.729V287.502Z" fill="#B0BEC5"/>
<path d="M292.788 344.647C307.909 338.25 314.982 320.806 308.585 305.685C302.188 290.563 284.744 283.49 269.622 289.887C254.501 296.284 247.428 313.728 253.825 328.85C260.222 343.971 277.666 351.044 292.788 344.647Z" fill="#CFD8DC"/>
<path d="M281.224 338.659C293.059 338.659 302.653 329.066 302.653 317.231C302.653 305.396 293.059 295.802 281.224 295.802C269.39 295.802 259.796 305.396 259.796 317.231C259.796 329.066 269.39 338.659 281.224 338.659Z" fill="#B0BEC5"/>
<path style="mix-blend-mode:multiply" d="M281.224 338.659C293.059 338.659 302.653 329.066 302.653 317.231C302.653 305.396 293.059 295.802 281.224 295.802C269.39 295.802 259.796 305.396 259.796 317.231C259.796 329.066 269.39 338.659 281.224 338.659Z" fill="url(#paint7_linear_167_1933)"/>
<path d="M817.129 288.608V218.464C817.129 213.904 812.779 210.202 807.436 210.202H738.113C732.751 210.202 728.419 213.904 728.419 218.464V288.608C728.419 296.26 732.865 303.415 740.288 307.709L762.384 320.493C768.662 324.119 776.886 324.119 783.164 320.493L805.261 307.709C812.683 303.415 817.129 296.26 817.129 288.608Z" fill="#90A4AE"/>
<path style="mix-blend-mode:multiply" d="M772.173 210.202V246.533C772.173 250.617 775.474 253.918 779.558 253.918C783.641 253.918 786.942 250.617 786.942 246.533V210.202H772.154H772.173Z" fill="url(#paint8_linear_167_1933)"/>
<path d="M780.168 71.4984V246.533C780.168 250.617 776.867 253.918 772.784 253.918C768.7 253.918 765.399 250.617 765.399 246.533V71.4984H780.187H780.168Z" fill="#37474F"/>
<path style="mix-blend-mode:multiply" d="M769.081 252.926C770.169 253.555 771.428 253.918 772.783 253.918C776.867 253.918 780.168 250.617 780.168 246.533V71.4984H772.783V246.533C772.783 249.262 771.295 251.647 769.081 252.926Z" fill="url(#paint9_linear_167_1933)"/>
<path d="M808.733 8.2241V39.8613C808.733 59.687 792.609 75.83 772.764 75.83C752.919 75.83 736.795 59.7061 736.795 39.8613V8.2241C736.795 5.8389 738.723 3.89258 741.127 3.89258H804.401C806.787 3.89258 808.733 5.81982 808.733 8.2241ZM745.478 39.8613C745.478 54.9166 757.728 67.167 772.783 67.167C787.839 67.167 800.089 54.9166 800.089 39.8613V12.5556H745.459V39.8613H745.478Z" fill="#37474F"/>
<path d="M787.973 0.915771H756.374C755.015 0.915771 753.913 2.01783 753.913 3.37729V13.3188C753.913 14.6782 755.015 15.7803 756.374 15.7803H787.973C789.333 15.7803 790.435 14.6782 790.435 13.3188V3.37729C790.435 2.01783 789.333 0.915771 787.973 0.915771Z" fill="#FFD740"/>
<path style="mix-blend-mode:multiply" d="M730.976 298.378C733.018 302.099 736.205 305.343 740.288 307.709L762.385 320.493C768.662 324.119 776.887 324.119 783.164 320.493L805.261 307.709C809.363 305.343 812.55 302.099 814.573 298.378C808.467 283.093 792.056 272.141 772.765 272.141C753.474 272.141 737.063 283.093 730.957 298.378H730.976Z" fill="url(#paint10_linear_167_1933)"/>
<path d="M495.224 336.484C483.832 336.484 478.318 322.211 486.981 314.807C488.316 313.681 489.767 312.689 491.312 311.869C497.533 308.625 505.127 308.377 511.672 310.857C515.889 312.441 520.66 311.487 523.999 308.491C528.941 304.064 535.925 301.679 542.68 301.469C549.167 301.278 555.503 302.728 561.704 304.77C566.742 306.43 572.313 304.637 575.443 300.362C588.8 282.063 610.629 270.442 633.126 266.321C646.731 263.821 661.138 263.821 674.037 268.821C683.711 272.58 692.432 279.449 697.66 288.284C700.293 292.749 705.56 295.058 710.655 294.046C720.443 292.119 731.434 295.706 738.285 302.977C742.215 307.136 748.398 308.377 753.378 305.572C757.824 303.072 762.614 301.355 767.689 301.183C773.49 300.992 779.577 303.492 783.336 307.709C786.37 311.105 791.045 312.422 795.529 311.735C798.983 311.22 802.589 311.773 805.623 313.49C805.681 313.529 805.738 313.548 805.795 313.586C816.614 319.902 811.863 336.579 799.327 336.579L495.224 336.503V336.484Z" fill="#CFD8DC"/>
<path style="mix-blend-mode:multiply" d="M495.224 336.484C483.832 336.484 478.318 322.211 486.981 314.807C488.316 313.681 489.767 312.689 491.312 311.869C497.533 308.625 505.127 308.377 511.672 310.857C515.889 312.441 520.66 311.487 523.999 308.491C528.941 304.064 535.925 301.679 542.68 301.469C549.167 301.278 555.503 302.728 561.704 304.77C566.742 306.43 572.313 304.637 575.443 300.362C588.8 282.063 610.629 270.442 633.126 266.321C646.731 263.821 661.138 263.821 674.037 268.821C683.711 272.58 692.432 279.449 697.66 288.284C700.293 292.749 705.56 295.058 710.655 294.046C720.443 292.119 731.434 295.706 738.285 302.977C742.215 307.136 748.398 308.377 753.378 305.572C757.824 303.072 762.614 301.355 767.689 301.183C773.49 300.992 779.577 303.492 783.336 307.709C786.37 311.105 791.045 312.422 795.529 311.735C798.983 311.22 802.589 311.773 805.623 313.49C805.681 313.529 805.738 313.548 805.795 313.586C816.614 319.902 811.863 336.579 799.327 336.579L495.224 336.503V336.484Z" fill="url(#paint11_linear_167_1933)"/>
<path d="M818.503 323.547H476.028C473.235 323.547 470.971 325.811 470.971 328.603V341.922C470.971 344.715 473.235 346.979 476.028 346.979H818.503C821.296 346.979 823.56 344.715 823.56 341.922V328.603C823.56 325.811 821.296 323.547 818.503 323.547Z" fill="#455A64"/>
<path d="M53.7695 215.793L39.3629 215.821L39.6518 366.278L54.0583 366.251L53.7695 215.793Z" fill="#37474F"/>
<path d="M29.0245 360.011V361.671C29.0245 364.228 31.1044 366.308 33.6805 366.308L60.0702 366.251C62.6271 366.251 64.707 364.171 64.707 361.595V359.935L29.0245 359.992V360.011Z" fill="#37474F"/>
<path d="M54.0405 353.046L39.653 353.065L29.0245 360.011L64.688 359.935L54.0405 353.046Z" fill="#455A64"/>
<path style="mix-blend-mode:multiply" d="M54.0393 353.046L53.6767 215.812H48.3721L48.7346 353.065L53.8675 359.973V361.633C53.8675 364.19 51.8067 366.27 49.2498 366.27H60.069C62.626 366.251 64.7059 364.171 64.7059 361.595V359.935L54.0584 353.027L54.0393 353.046Z" fill="url(#paint12_linear_167_1933)"/>
<path d="M63.7707 198.467C63.7707 188.907 55.9855 181.16 46.4256 181.179C36.8657 181.179 29.1186 188.964 29.1377 198.524C29.1377 208.084 36.923 215.831 46.4828 215.812C56.0427 215.812 63.7898 208.027 63.7707 198.467Z" fill="#D25A58"/>
<g style="mix-blend-mode:soft-light" opacity="0.5">
<path d="M42.5141 190.014C42.5141 191.826 41.0639 193.277 39.2511 193.296C37.4384 193.315 35.9882 191.845 35.9691 190.033C35.9691 188.22 37.4193 186.77 39.232 186.751C41.0448 186.751 42.495 188.201 42.5141 190.014Z" fill="white"/>
</g>
<path style="mix-blend-mode:multiply" d="M46.4463 215.812H46.5417C56.0825 215.774 63.7914 208.008 63.7723 198.467C63.7723 195.376 62.9519 192.495 61.5207 189.976L37.9741 213.58C40.4738 214.992 43.3551 215.793 46.4272 215.793L46.4463 215.812Z" fill="url(#paint13_linear_167_1933)"/>
<path d="M847.531 220.356L833.563 220.383L833.84 364.735L847.808 364.708L847.531 220.356Z" fill="#37474F"/>
<path d="M823.522 358.713V360.316C823.522 362.797 825.544 364.819 828.025 364.8L853.632 364.743C856.113 364.743 858.136 362.72 858.117 360.24V358.637L823.503 358.694L823.522 358.713Z" fill="#37474F"/>
<path d="M847.793 351.958L833.825 351.977L823.521 358.713L858.135 358.637L847.793 351.958Z" fill="#455A64"/>
<path style="mix-blend-mode:multiply" d="M847.966 351.959L847.623 220.411H842.471L842.814 351.959L847.794 358.657V360.259C847.794 362.74 845.791 364.763 843.31 364.763H853.805C856.286 364.744 858.308 362.721 858.289 360.24V358.637L847.947 351.94L847.966 351.959Z" fill="url(#paint14_linear_167_1933)"/>
<path d="M857.24 203.581C857.24 194.307 849.683 186.789 840.41 186.808C831.136 186.808 823.618 194.364 823.637 203.638C823.656 212.912 831.193 220.43 840.467 220.411C849.741 220.411 857.259 212.854 857.24 203.581Z" fill="#D25A58"/>
<path style="mix-blend-mode:multiply" d="M840.429 220.43H840.524C849.779 220.391 857.259 212.854 857.24 203.6C857.24 200.604 856.438 197.799 855.064 195.376L832.224 218.273C834.647 219.647 837.452 220.43 840.429 220.43Z" fill="url(#paint15_linear_167_1933)"/>
<g style="mix-blend-mode:soft-light" opacity="0.5">
<path d="M838.061 195.395C838.061 197.15 836.649 198.562 834.894 198.562C833.138 198.562 831.726 197.15 831.726 195.395C831.726 193.639 833.138 192.227 834.894 192.227C836.649 192.227 838.061 193.639 838.061 195.395Z" fill="white"/>
</g>
<path d="M860.336 220.351L26.7982 221.951L26.8587 253.455L860.396 251.855L860.336 220.351Z" fill="#FFD740"/>
<path d="M62.7018 221.899L31.2555 253.479H26.8476L26.8094 235.6L40.4337 221.956L62.7018 221.899Z" fill="#263238"/>
<path d="M104.471 221.823L73.006 253.403L50.7378 253.441L82.2033 221.88L104.471 221.823Z" fill="#263238"/>
<path d="M146.222 221.746L114.775 253.307L92.4879 253.364L123.953 221.785L146.222 221.746Z" fill="#263238"/>
<path d="M187.992 221.67L156.527 253.231L134.259 253.288L165.705 221.708L187.992 221.67Z" fill="#263238"/>
<path d="M229.742 221.594L198.296 253.154L176.009 253.193L207.474 221.632L229.742 221.594Z" fill="#263238"/>
<path d="M271.511 221.517L240.046 253.078L217.778 253.116L249.224 221.555L271.511 221.517Z" fill="#263238"/>
<path d="M313.261 221.441L281.815 253.002L259.528 253.04L290.993 221.479L313.261 221.441Z" fill="#263238"/>
<path d="M355.032 221.365L323.567 252.926L301.298 252.964L332.745 221.403L355.032 221.365Z" fill="#263238"/>
<path d="M396.782 221.288L365.336 252.849L343.049 252.887L374.514 221.327L396.782 221.288Z" fill="#263238"/>
<path d="M438.551 221.212L407.086 252.773L384.818 252.811L416.264 221.25L438.551 221.212Z" fill="#263238"/>
<path d="M480.301 221.136L448.855 252.696L426.568 252.735L458.033 221.174L480.301 221.136Z" fill="#263238"/>
<path d="M522.072 221.059L490.607 252.62L468.338 252.658L499.785 221.097L522.072 221.059Z" fill="#263238"/>
<path d="M563.822 220.964L532.376 252.544L510.089 252.582L541.554 221.021L563.822 220.964Z" fill="#263238"/>
<path d="M605.591 220.888L574.126 252.468L551.857 252.506L583.323 220.945L605.591 220.888Z" fill="#263238"/>
<path d="M647.343 220.811L615.896 252.372L593.628 252.429L625.074 220.849L647.343 220.811Z" fill="#263238"/>
<path d="M689.112 220.735L657.646 252.296L635.378 252.353L666.844 220.773L689.112 220.735Z" fill="#263238"/>
<path d="M730.881 220.659L699.415 252.219L677.147 252.258L708.593 220.697L730.881 220.659Z" fill="#263238"/>
<path d="M772.631 220.582L741.184 252.143L718.897 252.181L750.363 220.62L772.631 220.582Z" fill="#263238"/>
<path d="M814.401 220.506L782.955 252.067L760.668 252.105L792.114 220.544L814.401 220.506Z" fill="#263238"/>
<path d="M856.152 220.43L824.705 251.991L802.418 252.029L833.884 220.468L856.152 220.43Z" fill="#263238"/>
<path d="M860.368 235.714L860.388 251.914L844.168 251.953L860.368 235.714Z" fill="#263238"/>
<path style="mix-blend-mode:multiply" d="M860.384 235.883L26.8467 237.484L26.8773 253.455L860.415 251.854L860.384 235.883Z" fill="url(#paint16_linear_167_1933)"/>
<defs>
<linearGradient id="paint0_linear_167_1933" x1="471.924" y1="334.137" x2="471.924" y2="-141.948" gradientUnits="userSpaceOnUse">
<stop stop-color="white" stop-opacity="0"/>
<stop offset="1" stop-color="#90A4AE"/>
</linearGradient>
<linearGradient id="paint1_linear_167_1933" x1="404.509" y1="301.641" x2="443.645" y2="307.079" gradientUnits="userSpaceOnUse">
<stop stop-color="white" stop-opacity="0"/>
<stop offset="1"/>
</linearGradient>
<linearGradient id="paint2_linear_167_1933" x1="436.109" y1="298.435" x2="350.7" y2="314.082" gradientUnits="userSpaceOnUse">
<stop stop-color="white" stop-opacity="0"/>
<stop offset="1" stop-color="white"/>
</linearGradient>
<linearGradient id="paint3_linear_167_1933" x1="205.814" y1="268.363" x2="205.814" y2="330.893" gradientUnits="userSpaceOnUse">
<stop stop-color="white" stop-opacity="0"/>
<stop offset="1" stop-color="#B0BEC5"/>
</linearGradient>
<linearGradient id="paint4_linear_167_1933" x1="399.931" y1="317.231" x2="322.689" y2="317.231" gradientUnits="userSpaceOnUse">
<stop stop-color="white" stop-opacity="0"/>
<stop offset="1" stop-color="#B0BEC5"/>
</linearGradient>
<linearGradient id="paint5_linear_167_1933" x1="173.776" y1="231.02" x2="173.776" y2="305.934" gradientUnits="userSpaceOnUse">
<stop stop-color="white" stop-opacity="0"/>
<stop offset="1" stop-color="#B0BEC5"/>
</linearGradient>
<linearGradient id="paint6_linear_167_1933" x1="367.874" y1="264.299" x2="290.632" y2="264.299" gradientUnits="userSpaceOnUse">
<stop stop-color="white" stop-opacity="0"/>
<stop offset="1" stop-color="#B0BEC5"/>
</linearGradient>
<linearGradient id="paint7_linear_167_1933" x1="334.729" y1="317.231" x2="257.468" y2="317.231" gradientUnits="userSpaceOnUse">
<stop stop-color="white" stop-opacity="0"/>
<stop offset="1" stop-color="#B0BEC5"/>
</linearGradient>
<linearGradient id="paint8_linear_167_1933" x1="779.558" y1="253.937" x2="779.558" y2="210.202" gradientUnits="userSpaceOnUse">
<stop stop-color="white" stop-opacity="0"/>
<stop offset="1"/>
</linearGradient>
<linearGradient id="paint9_linear_167_1933" x1="736.528" y1="157.346" x2="823.75" y2="169.139" gradientUnits="userSpaceOnUse">
<stop stop-color="white" stop-opacity="0"/>
<stop offset="1"/>
</linearGradient>
<linearGradient id="paint10_linear_167_1933" x1="773.147" y1="301.545" x2="765.495" y2="234.054" gradientUnits="userSpaceOnUse">
<stop stop-color="white" stop-opacity="0"/>
<stop offset="1"/>
</linearGradient>
<linearGradient id="paint11_linear_167_1933" x1="680.391" y1="285.212" x2="593.322" y2="387.45" gradientUnits="userSpaceOnUse">
<stop stop-color="white" stop-opacity="0"/>
<stop offset="1" stop-color="#B0BEC5"/>
</linearGradient>
<linearGradient id="paint12_linear_167_1933" x1="8.86487" y1="273.011" x2="127.076" y2="322.968" gradientUnits="userSpaceOnUse">
<stop stop-color="white" stop-opacity="0"/>
<stop offset="1"/>
</linearGradient>
<linearGradient id="paint13_linear_167_1933" x1="50.8457" y1="183.495" x2="50.9135" y2="218.834" gradientUnits="userSpaceOnUse">
<stop stop-color="white" stop-opacity="0"/>
<stop offset="1"/>
</linearGradient>
<linearGradient id="paint14_linear_167_1933" x1="804.534" y1="275.262" x2="918.2" y2="323.3" gradientUnits="userSpaceOnUse">
<stop stop-color="white" stop-opacity="0"/>
<stop offset="1"/>
</linearGradient>
<linearGradient id="paint15_linear_167_1933" x1="844.707" y1="189.05" x2="844.773" y2="223.339" gradientUnits="userSpaceOnUse">
<stop stop-color="white" stop-opacity="0"/>
<stop offset="1"/>
</linearGradient>
<linearGradient id="paint16_linear_167_1933" x1="275.633" y1="9.21017" x2="532.513" y2="369.282" gradientUnits="userSpaceOnUse">
<stop stop-color="white" stop-opacity="0"/>
<stop offset="1"/>
</linearGradient>
</defs>
</svg>
